<svg id="svg" xmlns="http://www.w3.org/2000/svg" xmlns:xlink="http://www.w3.org/1999/xlink" width="400" height="300" viewBox="0, 0, 400,300"><g id="svgg"><path id="path0" d="M163.866 19.875 C 163.432 20.356,162.584 22.100,161.981 23.750 C 160.077 28.969,157.005 30.707,156.996 26.572 C 156.990 23.500,153.683 22.032,144.875 21.189 C 141.716 20.886,141.500 20.930,141.500 21.875 C 141.500 23.172,136.692 27.947,135.024 28.306 C 130.917 29.192,127.747 31.780,127.091 34.784 C 126.847 35.903,125.859 38.049,124.897 39.555 C 123.934 41.060,122.755 43.116,122.277 44.123 C 121.345 46.086,118.320 48.302,114.505 49.814 C 111.730 50.915,108.112 52.914,107.706 53.571 C 107.539 53.841,106.559 53.148,105.528 52.031 C 101.828 48.022,97.959 49.589,93.257 57.000 C 91.052 60.475,90.100 61.799,88.350 63.821 C 85.503 67.111,84.660 76.874,86.927 80.296 C 90.293 85.378,89.203 90.338,84.298 92.252 C 83.172 92.692,81.125 93.583,79.750 94.231 C 78.375 94.879,76.196 95.888,74.908 96.473 C 69.094 99.114,66.500 104.063,66.500 112.515 C 66.500 116.718,66.432 117.001,65.213 117.852 C 64.504 118.346,62.432 120.044,60.607 121.625 C 58.782 123.206,56.999 124.500,56.644 124.500 C 55.797 124.500,55.831 126.077,56.780 130.664 C 57.488 134.087,57.487 134.575,56.773 135.955 C 56.341 136.791,55.846 138.887,55.673 140.612 C 55.440 142.942,54.991 144.258,53.930 145.724 C 51.231 149.448,52.389 156.662,56.716 163.088 C 57.697 164.545,58.500 166.133,58.500 166.618 C 58.500 167.103,58.725 167.500,59.000 167.500 C 59.275 167.500,59.500 167.950,59.500 168.500 C 59.500 169.229,59.167 169.500,58.271 169.500 C 57.474 169.500,56.568 170.095,55.693 171.192 C 54.477 172.715,54.149 172.858,52.401 172.623 C 50.874 172.419,50.218 172.591,49.323 173.431 C 48.654 174.060,46.966 174.721,45.218 175.039 C 42.908 175.458,41.843 175.971,40.417 177.350 L 38.583 179.122 38.417 184.686 C 38.225 191.078,37.175 194.119,35.056 194.419 C 34.399 194.512,33.274 195.146,32.556 195.827 C 31.838 196.509,29.619 198.205,27.625 199.596 C 23.359 202.572,23.210 202.983,26.375 203.050 C 28.178 203.088,28.449 203.183,27.500 203.445 C 26.355 203.762,26.228 204.082,25.993 207.270 C 25.556 213.199,24.658 213.878,20.075 211.745 C 17.268 210.438,15.270 210.159,14.750 211.000 C 13.609 212.846,12.020 211.462,9.726 206.625 C 6.408 199.629,6.182 199.267,5.036 199.090 C 4.235 198.967,4.000 199.199,4.000 200.114 C 4.000 200.835,3.220 202.059,2.000 203.250 C 0.900 204.324,0.007 205.664,0.017 206.226 C 0.032 207.202,0.080 207.194,1.029 206.054 C 1.577 205.396,2.168 205.001,2.343 205.176 C 2.518 205.351,2.287 205.907,1.830 206.411 C 0.460 207.926,0.627 218.007,2.043 219.289 C 3.284 220.412,6.000 224.349,6.000 225.025 C 6.000 225.286,6.298 225.500,6.663 225.500 C 9.164 225.500,9.737 227.591,10.000 237.664 C 10.258 247.546,10.914 250.672,13.334 253.539 C 13.700 253.974,14.004 254.649,14.009 255.039 C 14.034 256.976,22.320 266.500,23.981 266.500 C 24.407 266.500,25.486 266.291,26.378 266.035 C 27.768 265.636,28.000 265.695,28.000 266.448 C 28.000 267.847,30.067 269.349,32.395 269.641 C 35.023 269.971,35.695 270.503,37.899 274.000 C 41.650 279.952,43.055 280.626,48.327 279.006 C 55.761 276.721,59.022 267.795,54.062 263.306 C 52.825 262.187,51.232 258.138,50.742 254.869 C 50.440 252.855,49.946 252.089,47.207 249.389 C 40.298 242.576,39.104 231.500,45.279 231.500 C 47.468 231.500,47.564 231.566,48.474 233.690 C 50.874 239.288,55.386 239.282,59.435 233.675 C 61.386 230.974,63.481 230.274,68.462 230.656 C 71.714 230.906,72.427 230.811,73.500 229.985 C 75.303 228.596,76.611 228.762,77.602 230.503 C 78.422 231.945,78.585 232.000,81.995 232.000 C 85.041 232.000,85.673 232.157,86.522 233.125 C 87.064 233.744,88.058 234.869,88.731 235.625 L 89.955 237.000 97.902 237.000 L 105.850 237.000 107.921 238.500 C 110.579 240.426,111.305 240.388,112.561 238.260 C 113.581 236.529,113.596 236.524,115.102 237.303 C 116.602 238.079,118.967 238.058,123.606 237.227 C 125.030 236.972,125.859 237.140,127.165 237.948 C 128.102 238.526,129.629 239.007,130.559 239.016 C 131.489 239.025,132.687 239.362,133.221 239.766 C 133.754 240.170,134.495 240.500,134.866 240.500 C 136.170 240.500,138.408 242.635,139.251 244.682 C 139.719 245.819,140.312 247.088,140.569 247.500 C 140.826 247.912,141.309 248.894,141.643 249.681 C 142.419 251.513,147.517 251.415,150.081 249.519 C 151.243 248.660,152.517 248.371,156.151 248.140 C 160.187 247.884,160.891 247.698,161.902 246.619 C 162.954 245.497,163.354 245.407,166.518 245.586 C 170.863 245.831,171.602 246.440,170.070 248.512 C 167.938 251.396,168.671 254.501,171.743 255.597 C 173.114 256.086,174.856 256.945,175.613 257.505 C 176.371 258.065,177.668 258.659,178.495 258.824 C 179.750 259.075,180.000 259.364,180.000 260.563 C 180.000 262.274,180.594 262.354,183.250 261.000 C 184.671 260.275,186.199 260.000,188.796 260.000 C 192.429 260.000,194.009 259.039,195.047 256.195 C 195.360 255.338,199.845 251.617,201.011 251.247 C 202.458 250.787,203.427 251.766,204.076 254.346 C 204.416 255.695,205.108 256.883,205.857 257.401 C 206.531 257.868,207.825 258.869,208.732 259.625 C 211.940 262.299,220.603 258.954,225.292 253.232 C 228.097 249.809,233.814 250.266,236.750 254.149 C 238.168 256.025,239.086 256.646,243.671 258.833 C 245.700 259.801,247.121 261.429,247.746 263.500 C 248.435 265.787,248.908 266.000,253.292 266.000 L 257.461 266.000 257.997 264.011 C 258.299 262.888,259.079 261.636,259.789 261.136 C 260.479 260.649,262.311 259.294,263.860 258.125 C 265.408 256.956,267.085 256.000,267.587 256.000 C 268.914 256.000,268.744 253.697,267.237 251.250 C 265.111 247.798,266.148 243.401,269.812 240.339 C 272.002 238.508,272.248 235.501,270.281 234.605 C 265.096 232.243,269.430 229.388,278.500 229.190 C 286.958 229.006,291.041 228.504,292.822 227.431 C 294.915 226.170,298.831 225.012,301.025 225.005 C 303.321 224.998,303.998 224.265,304.008 221.775 C 304.017 219.246,304.752 217.872,305.492 219.000 C 305.763 219.412,305.988 220.256,305.992 220.875 C 306.007 222.972,309.999 222.467,312.375 220.067 C 313.427 219.004,314.842 217.965,315.519 217.759 C 316.196 217.552,317.988 216.816,319.500 216.123 C 325.895 213.193,328.448 212.370,332.500 211.936 C 341.603 210.961,344.466 210.865,345.956 211.482 C 347.119 211.964,347.790 211.960,349.162 211.464 C 353.099 210.040,360.509 212.476,361.253 215.438 C 362.178 219.125,364.944 219.045,368.431 215.230 L 370.962 212.461 373.006 213.503 C 374.129 214.076,375.178 214.881,375.335 215.291 C 376.049 217.152,381.702 218.314,382.917 216.850 C 383.213 216.493,383.612 215.224,383.803 214.031 L 384.150 211.862 384.841 213.181 C 386.003 215.399,388.989 215.072,390.663 212.542 C 391.375 211.466,392.959 209.748,394.183 208.725 C 395.794 207.378,396.580 206.251,397.031 204.639 C 397.374 203.414,398.070 202.153,398.577 201.836 C 399.640 201.172,399.834 198.534,398.889 197.589 C 398.175 196.875,398.268 185.501,399.016 182.250 C 399.878 178.501,398.326 172.500,396.496 172.500 C 396.017 172.500,391.500 166.181,391.500 165.512 C 391.500 165.270,391.192 164.763,390.815 164.386 C 389.270 162.841,388.500 160.482,388.500 157.292 C 388.500 154.347,388.356 153.887,387.000 152.500 C 386.175 151.656,385.500 150.528,385.500 149.994 C 385.500 149.308,384.655 148.608,382.625 147.613 C 380.060 146.356,375.904 141.511,374.389 138.012 C 373.760 136.560,366.209 132.476,363.621 132.189 C 361.819 131.989,360.185 131.450,359.232 130.741 C 357.527 129.473,354.300 128.288,351.128 127.764 C 348.806 127.380,347.749 126.504,349.595 126.493 C 353.518 126.470,354.324 125.005,354.422 117.711 C 354.507 111.383,354.273 110.933,349.931 109.075 C 345.351 107.116,337.000 97.821,337.000 94.682 C 337.000 93.652,331.772 86.947,329.452 85.000 C 329.288 84.862,329.013 84.173,328.841 83.468 C 328.342 81.427,323.613 75.500,322.483 75.500 C 321.613 75.500,321.500 75.851,321.500 78.561 C 321.500 81.226,321.403 81.542,320.750 81.000 C 320.210 80.552,320.000 79.366,320.000 76.767 C 320.000 72.039,318.454 68.750,316.232 68.750 C 315.219 68.750,314.715 69.045,314.523 69.750 C 313.770 72.513,313.104 72.868,311.711 71.250 C 308.754 67.819,307.719 66.835,305.785 65.622 C 304.666 64.921,302.657 63.368,301.321 62.173 C 298.376 59.539,295.739 59.227,293.296 61.225 L 291.842 62.413 290.372 61.332 C 289.564 60.737,288.581 59.631,288.188 58.875 C 287.616 57.772,287.127 57.500,285.721 57.500 C 282.349 57.500,280.500 56.313,280.501 54.151 C 280.505 49.892,278.045 46.804,274.000 45.986 C 269.256 45.028,265.509 43.864,264.933 43.169 C 264.627 42.801,264.077 42.500,263.709 42.500 C 263.341 42.500,262.525 41.963,261.895 41.306 C 261.054 40.429,260.038 40.049,258.069 39.874 C 255.622 39.657,255.172 39.412,252.925 37.068 C 251.571 35.656,250.246 34.500,249.981 34.500 C 249.717 34.500,249.500 34.095,249.500 33.600 C 249.500 32.308,248.510 31.500,246.925 31.500 C 245.919 31.500,245.177 30.998,244.153 29.625 C 242.100 26.871,241.835 26.780,234.750 26.417 C 231.175 26.233,227.271 25.926,226.074 25.734 C 223.961 25.395,223.822 25.458,221.324 27.889 C 217.233 31.869,215.893 32.356,213.744 30.641 C 212.785 29.876,212.000 29.049,212.000 28.804 C 212.000 28.548,209.430 28.509,205.965 28.711 C 199.172 29.109,198.500 28.883,198.500 26.209 C 198.500 23.337,192.964 22.561,189.866 24.998 C 188.715 25.904,188.614 26.349,188.403 31.474 C 188.086 39.156,184.675 41.804,181.187 37.073 C 180.451 36.075,180.632 28.668,181.411 27.889 C 183.035 26.265,181.343 21.589,179.003 21.233 C 178.039 21.087,176.418 20.525,175.401 19.984 C 172.847 18.625,165.059 18.552,163.866 19.875 M174.500 21.000 C 175.188 21.538,176.313 21.999,177.000 22.024 C 180.080 22.138,182.232 25.385,180.758 27.696 C 180.319 28.383,180.084 30.358,180.083 33.371 C 180.081 38.946,180.871 40.000,185.056 40.000 C 188.550 40.000,189.177 38.857,189.420 32.036 C 189.634 26.034,189.721 25.848,192.694 25.016 C 195.799 24.146,198.000 25.272,198.000 27.729 C 198.000 29.980,198.818 30.205,205.455 29.777 L 210.750 29.436 212.473 31.218 C 215.136 33.972,218.454 33.078,222.734 28.453 C 224.347 26.709,224.819 26.462,225.938 26.778 C 226.660 26.981,230.063 27.231,233.500 27.333 C 240.518 27.542,241.435 27.847,243.241 30.576 C 244.187 32.006,244.855 32.500,245.843 32.500 C 247.150 32.500,249.000 33.730,249.000 34.599 C 249.000 36.384,254.602 40.676,257.214 40.893 C 259.248 41.062,260.220 41.420,261.056 42.309 C 261.671 42.964,262.457 43.500,262.801 43.500 C 263.146 43.500,263.726 43.792,264.089 44.149 C 264.867 44.913,269.333 46.292,272.427 46.724 C 276.797 47.335,280.000 51.100,280.000 55.626 C 280.000 57.611,281.497 58.500,284.841 58.500 C 286.245 58.500,286.710 58.798,287.566 60.250 C 288.134 61.212,288.887 62.000,289.238 62.000 C 289.590 62.000,290.158 62.337,290.500 62.750 C 291.387 63.818,292.416 63.683,294.294 62.250 C 296.558 60.523,297.519 60.668,300.321 63.160 C 301.657 64.347,303.988 66.134,305.500 67.129 C 307.012 68.124,309.098 70.077,310.135 71.469 C 312.518 74.670,313.558 74.730,315.000 71.750 C 316.320 69.022,316.175 69.031,317.859 71.576 C 319.008 73.311,319.275 74.355,319.492 77.951 C 319.745 82.175,319.774 82.253,321.099 82.406 C 322.413 82.557,322.452 82.486,322.599 79.656 L 322.750 76.750 325.143 79.860 C 326.459 81.571,327.820 83.646,328.167 84.471 C 328.833 86.055,330.864 88.646,334.375 92.392 C 335.827 93.941,336.500 95.101,336.500 96.056 C 336.500 99.245,344.238 107.953,348.906 110.017 C 353.524 112.059,354.020 112.934,353.819 118.680 C 353.611 124.595,352.835 126.000,349.772 126.000 C 348.608 126.000,347.864 126.273,347.673 126.772 C 347.259 127.849,347.360 127.903,352.149 129.182 C 354.500 129.810,357.172 130.890,358.087 131.583 C 359.219 132.441,360.707 132.954,362.750 133.191 C 364.629 133.408,366.451 133.998,367.625 134.769 C 368.656 135.446,370.413 136.602,371.530 137.339 C 372.646 138.075,373.805 139.144,374.105 139.714 C 376.483 144.235,379.040 147.364,381.079 148.247 C 383.809 149.430,385.000 150.419,385.000 151.503 C 385.000 151.970,385.675 153.058,386.500 153.921 C 387.868 155.353,388.000 155.792,388.000 158.920 C 388.000 161.901,388.195 162.638,389.491 164.550 C 390.311 165.760,390.986 166.918,390.991 167.124 C 391.005 167.719,394.643 172.687,395.561 173.367 C 397.955 175.136,399.178 178.519,398.579 181.715 C 397.677 186.536,397.606 197.561,398.467 199.180 C 399.127 200.421,399.099 200.587,398.112 201.278 C 397.522 201.691,396.890 202.829,396.706 203.806 C 396.470 205.068,395.457 206.518,393.217 208.803 C 391.481 210.573,389.919 212.467,389.747 213.011 C 389.259 214.548,386.614 214.364,386.000 212.750 C 385.443 211.285,383.502 210.994,383.497 212.375 C 383.489 215.004,382.455 217.000,381.101 216.998 C 379.623 216.996,376.500 215.312,376.500 214.518 C 376.500 213.822,372.779 211.997,371.395 212.014 C 370.627 212.023,369.510 212.923,368.000 214.748 C 365.116 218.236,363.625 218.336,362.512 215.115 C 361.201 211.321,359.281 210.777,347.250 210.787 C 331.578 210.800,328.456 211.335,319.750 215.495 C 318.100 216.283,316.122 217.084,315.354 217.274 C 314.586 217.464,313.036 218.504,311.910 219.586 C 309.356 222.041,307.402 222.108,306.999 219.756 C 306.424 216.407,303.500 217.871,303.500 221.508 C 303.500 224.117,303.099 224.496,300.334 224.505 C 298.312 224.512,294.349 225.711,292.322 226.928 C 290.562 227.985,286.650 228.456,278.000 228.654 C 268.615 228.869,264.170 232.522,269.479 235.658 C 271.465 236.831,271.399 237.920,269.212 240.027 C 265.407 243.693,264.436 248.847,266.794 252.870 C 267.506 254.085,268.012 255.124,267.919 255.179 C 267.826 255.234,266.962 255.663,266.000 256.131 C 261.874 258.139,258.271 261.252,257.578 263.409 L 256.905 265.500 253.780 265.500 C 250.354 265.500,249.361 264.883,248.732 262.366 C 248.293 260.606,244.942 257.713,242.861 257.297 C 241.833 257.092,240.376 256.038,238.758 254.330 C 235.858 251.267,234.054 250.500,229.754 250.500 L 226.657 250.500 224.539 253.012 C 223.374 254.393,221.370 256.063,220.085 256.722 C 218.801 257.382,216.975 258.501,216.028 259.210 C 213.858 260.836,212.310 260.842,210.319 259.232 C 209.456 258.535,208.084 257.438,207.271 256.794 C 206.368 256.079,205.491 254.673,205.021 253.186 C 203.598 248.689,199.428 249.934,194.275 256.396 L 191.799 259.500 188.275 259.502 C 185.679 259.503,184.334 259.757,183.172 260.466 C 181.417 261.536,181.000 261.383,181.000 259.667 C 181.000 259.025,180.719 258.491,180.375 258.481 C 180.031 258.470,177.613 257.401,175.000 256.104 C 169.679 253.464,168.803 252.033,170.976 249.528 C 172.266 248.040,172.292 246.192,171.033 245.518 C 169.016 244.438,162.569 244.876,161.351 246.174 C 160.401 247.188,159.620 247.389,155.651 247.640 C 152.040 247.869,150.740 248.162,149.602 249.003 C 145.566 251.988,142.980 250.527,140.204 243.694 C 139.241 241.324,134.564 238.499,131.605 238.500 C 130.700 238.500,129.311 238.021,128.519 237.435 C 127.025 236.331,126.559 236.324,119.655 237.302 C 118.159 237.514,117.235 237.371,116.419 236.800 C 114.587 235.516,113.334 235.802,112.291 237.740 L 111.354 239.479 109.328 237.990 L 107.303 236.500 99.203 236.500 L 91.104 236.500 89.610 234.798 C 88.788 233.863,88.017 232.800,87.896 232.438 C 87.747 231.992,86.425 231.715,83.812 231.583 C 80.235 231.403,79.868 231.281,78.880 229.944 C 77.635 228.261,75.812 228.054,73.367 229.319 C 72.219 229.912,70.660 230.110,67.697 230.039 C 62.585 229.916,60.544 230.700,58.693 233.496 C 57.938 234.638,56.429 236.026,55.340 236.581 C 52.562 237.999,51.362 237.133,48.992 232.000 C 48.315 230.532,42.714 230.709,41.717 232.230 C 39.072 236.267,41.625 245.776,46.665 250.658 C 49.462 253.367,49.902 254.049,50.216 256.167 C 50.737 259.687,51.839 262.500,53.514 264.588 C 56.323 268.091,56.383 268.599,54.463 272.642 C 52.409 276.968,52.143 277.209,48.028 278.472 C 43.848 279.755,42.580 279.067,39.236 273.702 C 36.869 269.904,35.693 269.000,33.120 269.000 C 31.730 269.000,29.000 266.785,29.000 265.656 C 29.000 264.879,28.320 264.835,26.112 265.468 C 24.558 265.914,24.325 265.789,21.230 262.843 C 17.853 259.630,17.645 259.318,13.682 251.500 L 11.275 246.750 11.012 237.000 C 10.731 226.552,10.695 226.385,8.468 225.234 C 7.661 224.816,7.000 224.266,7.000 224.012 C 7.000 223.186,3.953 219.010,2.963 218.480 C 1.656 217.781,1.503 208.535,2.781 207.474 C 3.265 207.073,3.508 206.207,3.421 205.198 C 3.335 204.195,3.611 203.206,4.141 202.621 C 4.613 202.099,5.005 201.351,5.011 200.961 C 5.027 199.946,6.894 202.464,7.264 204.000 C 8.679 209.871,13.202 214.114,15.772 211.981 C 16.322 211.525,17.045 211.682,19.086 212.699 C 24.382 215.338,26.592 214.127,27.000 208.365 L 27.250 204.832 29.590 204.041 C 32.833 202.945,33.059 202.500,30.374 202.500 C 26.377 202.500,26.149 202.073,29.100 200.121 C 30.558 199.157,32.425 197.742,33.250 196.976 C 34.075 196.210,35.313 195.508,36.000 195.416 C 38.194 195.124,39.223 192.160,39.420 185.559 L 39.589 179.867 41.420 178.186 C 42.759 176.957,43.896 176.419,45.656 176.184 C 46.980 176.008,48.827 175.344,49.762 174.710 C 51.069 173.823,51.878 173.624,53.266 173.849 C 54.896 174.114,55.218 173.963,56.600 172.286 C 57.687 170.968,58.285 170.585,58.665 170.965 C 59.831 172.131,60.500 171.517,60.500 169.280 C 60.500 168.058,60.275 166.920,60.000 166.750 C 59.725 166.580,59.500 166.084,59.500 165.647 C 59.500 165.211,58.705 163.656,57.733 162.192 C 53.523 155.848,52.516 150.183,54.939 146.461 C 55.965 144.885,56.478 143.321,56.726 141.014 C 56.918 139.234,57.434 137.169,57.874 136.425 C 58.655 135.102,58.444 132.243,57.151 126.625 C 56.977 125.872,57.122 125.500,57.590 125.500 C 57.974 125.500,59.750 124.206,61.536 122.625 C 63.322 121.044,65.338 119.385,66.016 118.939 C 67.180 118.175,67.267 117.790,67.555 112.189 C 68.007 103.420,70.157 99.916,76.928 96.918 C 78.755 96.109,80.925 95.136,81.750 94.755 C 82.575 94.374,84.277 93.598,85.533 93.031 C 90.249 90.901,91.342 85.746,88.250 80.217 C 85.354 75.038,86.264 68.759,90.760 62.899 C 92.267 60.934,93.500 59.117,93.500 58.860 C 93.500 57.347,99.754 51.000,101.245 51.000 C 102.570 51.000,104.859 52.543,105.447 53.833 C 106.067 55.195,108.036 55.412,109.020 54.226 C 109.373 53.800,111.144 52.772,112.956 51.941 C 120.967 48.265,123.137 46.673,123.661 44.086 C 123.810 43.351,124.397 42.253,124.966 41.646 C 125.535 41.039,126.000 40.381,126.000 40.185 C 126.000 39.989,126.313 39.474,126.696 39.039 C 127.079 38.605,127.704 37.130,128.085 35.761 C 128.895 32.847,132.669 29.507,135.155 29.503 C 136.835 29.500,141.847 25.034,142.330 23.110 C 142.615 21.973,142.801 21.907,144.944 22.187 C 150.395 22.898,152.470 23.353,153.263 24.011 C 153.727 24.396,154.589 24.950,155.178 25.243 C 155.920 25.611,156.327 26.386,156.500 27.762 C 157.026 31.947,160.714 30.507,162.581 25.388 C 164.393 20.417,164.926 19.998,169.411 20.011 C 172.450 20.020,173.511 20.226,174.500 21.000 " stroke="none" fill="#000000" fill-rule="evenodd"></path></g></svg>
