<svg id="svg" xmlns="http://www.w3.org/2000/svg" xmlns:xlink="http://www.w3.org/1999/xlink" width="400" height="400" viewBox="0, 0, 400,400"><g id="svgg"><path id="path0" d="M298.870 88.598 C 293.053 91.862,281.680 92.505,276.720 89.850 C 266.340 84.295,254.527 89.103,249.030 101.122 C 246.200 107.310,242.749 112.000,241.027 112.000 C 236.618 112.000,235.671 112.511,230.507 117.675 C 226.734 121.448,225.269 121.883,222.916 119.930 C 221.312 118.599,220.000 118.094,220.000 118.806 C 220.000 119.519,217.126 118.616,213.613 116.800 C 207.309 113.540,207.161 113.572,202.254 119.249 C 199.520 122.412,196.449 124.743,195.431 124.430 C 194.412 124.116,192.369 124.864,190.890 126.091 C 189.411 127.318,185.681 128.155,182.601 127.949 C 166.996 126.909,160.544 130.994,161.156 141.526 C 161.665 150.302,160.770 150.619,133.620 151.293 L 110.001 151.879 102.660 145.439 C 98.623 141.898,92.842 136.525,89.814 133.500 C 80.221 123.917,68.542 132.499,71.203 147.176 C 71.744 150.154,71.107 152.064,69.539 152.167 C 68.143 152.258,64.978 152.558,62.507 152.832 C 60.036 153.106,56.521 151.681,54.697 149.665 C 50.518 145.047,48.810 145.073,42.744 149.844 L 37.856 153.689 43.928 157.276 C 53.326 162.827,51.917 172.180,41.290 174.783 C 36.672 175.914,35.796 177.004,36.707 180.487 C 37.326 182.855,36.870 185.952,35.693 187.370 C 34.494 188.815,34.234 191.499,35.104 193.475 C 37.869 199.761,37.090 202.987,32.654 203.619 C 23.131 204.975,14.388 218.000,23.000 218.000 C 26.968 218.000,28.000 219.008,28.000 222.882 C 28.000 225.567,28.961 228.358,30.136 229.084 C 31.311 229.810,31.790 231.664,31.199 233.202 C 30.609 234.741,30.997 236.000,32.063 236.000 C 33.128 236.000,34.000 237.171,34.000 238.603 C 34.000 241.434,50.531 258.000,53.356 258.000 C 54.310 258.000,56.825 261.375,58.946 265.500 C 64.366 276.042,68.031 280.000,72.373 280.000 C 74.437 280.000,76.684 281.575,77.367 283.500 C 79.483 289.467,84.431 294.000,88.829 294.000 C 91.144 294.000,94.106 295.710,95.411 297.800 C 99.024 303.585,109.622 308.029,122.966 309.354 C 129.585 310.011,136.007 311.338,137.237 312.301 C 138.666 313.421,141.646 311.831,145.494 307.896 C 150.312 302.967,153.637 301.541,162.152 300.750 C 169.427 300.074,173.609 298.593,175.380 296.064 C 177.016 293.729,179.451 292.754,181.989 293.418 C 184.451 294.061,188.525 292.561,192.504 289.546 C 203.289 281.374,207.597 279.643,211.697 281.838 C 213.810 282.968,217.880 283.139,221.197 282.236 C 224.389 281.367,229.850 281.429,233.332 282.375 C 236.939 283.355,243.114 283.320,247.679 282.295 C 253.183 281.058,256.412 281.200,257.986 282.747 C 259.693 284.425,261.494 283.596,265.043 279.500 C 268.491 275.520,271.681 274.000,276.583 274.000 C 284.593 274.000,296.500 262.579,296.500 254.896 C 296.500 252.306,299.675 246.852,303.647 242.618 C 307.579 238.428,310.558 234.150,310.268 233.111 C 309.646 230.883,313.661 222.414,317.610 217.626 C 319.140 215.770,319.812 213.314,319.103 212.167 C 317.718 209.926,320.950 202.764,325.316 198.398 C 326.792 196.922,328.000 194.010,328.000 191.928 C 328.000 189.845,329.789 187.183,331.976 186.013 C 334.163 184.842,336.549 181.436,337.277 178.442 C 338.006 175.449,341.166 170.044,344.301 166.430 C 347.435 162.817,350.000 159.097,350.000 158.164 C 350.000 156.417,353.185 155.119,366.982 151.243 C 372.403 149.720,375.185 147.716,375.651 145.000 C 376.029 142.800,377.764 139.889,379.507 138.532 C 382.393 136.285,382.378 135.732,379.339 132.374 C 377.502 130.345,376.000 127.631,376.000 126.343 C 376.000 125.054,373.525 123.994,370.500 123.987 C 366.491 123.978,364.077 122.352,361.593 117.987 C 359.719 114.694,356.903 112.000,355.336 112.000 C 353.768 112.000,351.354 109.270,349.972 105.932 C 347.300 99.481,336.115 98.587,325.975 104.013 C 322.171 106.049,314.000 100.838,314.000 96.376 C 314.000 92.224,302.732 86.432,298.870 88.598 M278.110 95.039 C 283.493 96.938,287.428 97.372,288.605 96.195 C 289.640 95.160,291.637 94.754,293.041 95.293 C 294.446 95.832,296.190 95.311,296.916 94.136 C 299.838 89.407,314.000 97.389,314.000 103.765 C 314.000 106.902,323.763 110.682,326.432 108.579 C 333.165 103.272,343.750 104.031,348.094 110.133 C 350.392 113.360,353.336 116.006,354.636 116.013 C 355.936 116.020,358.533 118.720,360.407 122.013 C 362.281 125.306,365.456 128.000,367.462 128.000 C 373.262 128.000,378.474 135.117,374.866 138.111 C 373.290 139.419,372.000 141.712,372.000 143.207 C 372.000 144.701,369.525 146.466,366.500 147.129 C 363.475 147.792,359.650 148.856,358.000 149.494 C 356.350 150.132,354.134 150.732,353.076 150.827 C 352.019 150.922,348.584 154.825,345.444 159.500 C 342.305 164.175,338.445 168.000,336.868 168.000 C 335.081 168.000,333.987 170.073,333.965 173.500 C 333.945 176.725,331.877 180.948,328.965 183.710 C 326.234 186.300,324.000 189.635,324.000 191.121 C 324.000 192.607,321.750 197.138,319.000 201.190 C 316.250 205.243,314.000 210.148,314.000 212.090 C 314.000 216.512,305.856 232.453,302.500 234.599 C 301.125 235.479,300.000 237.504,300.000 239.099 C 300.000 240.695,299.205 242.000,298.233 242.000 C 296.605 242.000,293.765 248.204,293.176 253.049 C 292.040 262.393,283.894 270.000,275.025 270.000 C 267.255 270.000,265.580 270.734,263.643 274.984 C 261.953 278.695,260.725 279.431,258.839 277.866 C 257.072 276.400,253.957 276.396,248.542 277.854 C 243.622 279.179,238.454 279.277,234.428 278.123 C 230.478 276.990,225.364 277.050,220.902 278.282 C 215.931 279.655,212.922 279.595,211.107 278.089 C 208.242 275.711,199.408 278.104,197.067 281.891 C 194.434 286.151,183.664 290.464,181.375 288.175 C 179.821 286.621,177.768 287.371,174.105 290.832 C 168.868 295.779,160.738 297.959,156.762 295.482 C 155.523 294.710,151.275 297.243,147.248 301.153 C 143.247 305.040,139.211 307.748,138.280 307.173 C 137.349 306.598,130.830 305.712,123.793 305.204 C 109.842 304.198,101.280 300.718,96.713 294.197 C 95.074 291.857,91.584 290.000,88.824 290.000 C 85.916 290.000,83.362 288.556,82.633 286.500 C 80.625 280.838,75.648 276.000,71.830 276.000 C 69.617 276.000,66.571 272.577,63.741 266.911 C 61.154 261.730,55.186 254.759,49.862 250.699 C 40.343 243.440,30.553 226.656,32.650 221.191 C 33.227 219.688,31.560 217.370,28.865 215.928 C 22.788 212.675,25.823 208.000,34.012 208.000 C 40.511 208.000,41.381 205.659,40.875 189.541 C 40.677 183.239,41.193 178.501,42.022 179.014 C 42.852 179.526,45.886 178.092,48.765 175.828 C 55.261 170.718,55.902 161.222,50.000 157.536 C 47.800 156.162,46.000 153.904,46.000 152.519 C 46.000 149.138,47.411 149.338,53.691 153.613 C 56.611 155.601,60.350 157.088,62.000 156.918 C 63.650 156.748,67.544 156.472,70.653 156.305 C 75.735 156.031,76.262 155.343,75.865 149.500 C 74.611 131.047,78.489 129.000,91.990 140.991 C 108.935 156.040,108.288 155.830,135.865 155.293 C 153.083 154.958,160.977 154.070,161.532 152.405 C 161.973 151.082,164.198 150.000,166.477 150.000 C 170.389 150.000,170.433 149.793,167.253 146.280 C 163.102 141.692,165.901 132.076,171.450 131.864 C 173.403 131.790,179.050 131.387,184.000 130.969 C 188.950 130.551,194.581 130.107,196.512 129.982 C 198.444 129.856,201.409 127.076,203.101 123.804 L 206.178 117.854 211.589 121.576 C 218.431 126.281,228.171 125.729,235.149 120.240 C 238.114 117.908,241.819 116.000,243.382 116.000 C 244.946 116.000,248.003 111.981,250.175 107.069 C 256.686 92.351,262.903 89.674,278.110 95.039 " stroke="none" fill="#000000" fill-rule="evenodd"></path></g></svg>
