<svg xmlns="http://www.w3.org/2000/svg" width="700" height="700" viewBox="0 0 700 700"><path d="M 344 16.689 C 334.175 17.723, 317.129 21.620, 305.075 25.586 C 248.403 44.235, 207.935 82.727, 187.560 137.364 C 183.593 148.003, 178.853 166.099, 176.983 177.750 L 175.819 185 87.910 185 L 0 185 0 434.001 L 0 683.003 350.250 682.751 L 700.500 682.500 700.752 433.500 L 701.004 184.500 613.725 184.761 L 526.445 185.022 526.824 181.049 C 527.433 174.664, 525.086 150.363, 522.876 140.160 C 516.377 110.163, 503.454 86.355, 482.051 64.945 C 455.357 38.241, 420.638 21.933, 380.026 17.024 C 372.056 16.061, 351.757 15.872, 344 16.689 M 346.035 46.087 C 291.473 51.340, 243.986 83.758, 221.590 131.043 C 203.238 169.789, 197.647 225.195, 208.375 262 C 219.792 301.171, 249.887 330.772, 292.697 344.939 C 309.228 350.410, 321.395 352.328, 339.500 352.317 C 362.950 352.304, 381.538 347.582, 397.930 337.476 C 401.994 334.970, 405.626 333.275, 406 333.710 C 406.373 334.144, 410.434 339.187, 415.023 344.915 L 423.366 355.331 420.234 357.946 C 411.869 364.929, 394.415 372.185, 376.183 376.258 C 367.811 378.128, 363.453 378.418, 344 378.404 C 323.337 378.389, 320.439 378.164, 308.500 375.647 C 251.670 363.664, 208.930 332.804, 187.934 288.593 C 178.910 269.591, 175.616 256.296, 173.850 231.750 L 172.645 215 111.573 215 L 50.501 215 200.250 364.750 L 350 514.499 499.750 364.750 L 649.499 215 586.400 215 L 523.302 215 520.506 225.746 C 511.403 260.737, 492.378 283.934, 466.500 291.597 C 458.521 293.960, 444.473 293.962, 436.552 291.602 C 419.560 286.538, 403.161 273.283, 392.505 256 C 390.979 253.525, 389.572 251.318, 389.378 251.096 C 389.183 250.873, 385.080 254.473, 380.259 259.096 C 365.859 272.904, 348.245 283.123, 329.500 288.545 C 319.053 291.567, 300.809 292.857, 292 291.196 C 269.182 286.895, 253.460 272.113, 244.994 247 C 241.845 237.662, 241.117 219.087, 243.480 208.383 C 251.151 173.633, 282.110 136.537, 318.849 118.074 C 341.977 106.451, 371.874 100.677, 396.950 102.991 C 407.724 103.985, 423.448 107.319, 425.324 109.007 C 425.778 109.415, 422.688 132.868, 418.459 161.124 C 409.184 223.094, 409.258 222.356, 411.493 230.611 C 416.620 249.553, 436.401 265, 455.532 265 C 474.286 265, 487.596 245.721, 494.179 209.020 C 497.163 192.384, 497.818 163.590, 495.525 149.803 C 485.533 89.713, 440.840 51.533, 374 45.986 C 361.099 44.915, 358.096 44.926, 346.035 46.087 M 364.597 133.607 C 348.549 136.505, 330.439 143.939, 315.635 153.707 C 305.471 160.413, 287.407 178.734, 281.522 188.306 C 274.585 199.590, 270.936 210.863, 270.868 221.221 C 270.802 231.419, 272.236 237.504, 276.777 246.285 C 283.693 259.662, 293.548 265.525, 309 265.456 C 330.894 265.358, 354.687 250.234, 370.867 226.131 C 376.879 217.175, 380.647 209.868, 381.871 204.795 C 382.715 201.296, 393 134.331, 393 132.335 C 393 131.402, 371.466 132.366, 364.597 133.607 M 0.492 434 C 0.492 571.225, 0.608 627.363, 0.750 558.750 C 0.892 490.138, 0.892 377.863, 0.750 309.250 C 0.608 240.638, 0.492 296.775, 0.492 434 M 29 434 L 29 632.499 128.249 533.249 L 227.499 434 128.249 334.751 L 29 235.501 29 434 M 571.499 335.001 L 472.503 434.001 571.751 533.250 L 671 632.499 671 434.249 C 671 325.212, 670.887 236, 670.748 236 C 670.610 236, 625.948 280.550, 571.499 335.001 M 149.499 554.001 L 50.504 653 350 653 L 649.496 653 550.501 554.001 L 451.506 455.002 400.753 505.747 L 350 556.493 299.247 505.747 L 248.494 455.002 149.499 554.001 " stroke="none" fill="black" fill-rule="evenodd" xmlns="http://www.w3.org/2000/svg"/><path stroke="black" stroke-width="1" d=""/></svg>