<svg xmlns="http://www.w3.org/2000/svg" width="700" height="700" viewBox="0 0 700 700"><path d="M 103.829 0.504 C 103.552 0.781, 100.749 1.484, 97.599 2.066 C 56.850 9.599, 19.671 42.499, 5.934 83.181 C 0.130 100.369, 0.562 80.240, 0.253 348 L -0.031 593.500 2.112 602.950 C 7.375 626.157, 15.373 642.039, 30.491 659.305 C 46.639 677.747, 66.623 690.111, 91.969 697.342 C 99.468 699.482, 100.032 699.492, 224.750 699.768 L 350 700.045 350 568.033 L 350 436.022 307.750 435.761 L 265.500 435.500 265.500 377.500 L 265.500 319.500 307.750 319.239 L 350 318.978 350.031 297.239 C 350.068 270.374, 351.188 254.616, 354.025 241.030 C 361.943 203.114, 384.040 168.622, 414.274 146.987 C 421.572 141.765, 439.789 132.510, 447 130.361 C 462.728 125.674, 461.978 125.726, 520.250 125.286 L 576 124.865 576 182.933 L 576 241 528.750 241.006 C 497.759 241.009, 480.124 241.386, 477.500 242.102 C 472.246 243.535, 464.149 251.859, 461.544 258.508 C 459.807 262.940, 459.546 266.612, 459.223 291.242 L 458.859 318.984 517.180 319.242 L 575.500 319.500 575.500 377.500 L 575.500 435.500 517.250 435.758 L 459 436.016 459 568.046 L 459 700.075 530.250 699.754 L 601.500 699.432 611 696.689 C 630.222 691.141, 650.901 678.965, 664.933 664.933 C 679.764 650.102, 691.862 629.080, 696.545 610 C 697.962 604.225, 699.544 598.118, 700.061 596.429 C 701.273 592.466, 701.338 102.673, 700.126 103.422 C 699.646 103.719, 698.949 101.676, 698.579 98.882 C 697.069 87.500, 689.893 69.168, 682.220 57.091 C 676.643 48.314, 667.381 37.562, 659.305 30.491 C 642.066 15.396, 626.292 7.462, 602.711 2.026 C 594.013 0.021, 591.414 0, 349.128 0 C 214.491 0, 104.107 0.227, 103.829 0.504 M 0.492 350 C 0.492 485.575, 0.608 541.037, 0.750 473.250 C 0.892 405.462, 0.892 294.537, 0.750 226.750 C 0.608 158.962, 0.492 214.425, 0.492 350 " stroke="none" fill="black" fill-rule="evenodd" xmlns="http://www.w3.org/2000/svg"/><path stroke="black" stroke-width="1" d=""/></svg>