<svg xmlns="http://www.w3.org/2000/svg" width="700" height="700" viewBox="0 0 700 700"><path d="M 169 1.662 C 122.663 9.214, 87.622 26.573, 57.098 57.098 C 31.297 82.898, 13.248 115.144, 5.658 149 C -0.297 175.561, -0 164.995, -0 350.500 C -0 536.184, -0.281 526.266, 5.695 551.500 C 19.318 609.021, 58.329 657.024, 111.500 681.690 C 131.263 690.858, 143.774 694.656, 165.500 698.082 C 176.930 699.884, 185.687 699.974, 350 699.980 C 514.197 699.986, 523.102 699.895, 535 698.093 C 577.246 691.695, 613.488 673.442, 643.465 643.465 C 673.124 613.806, 690.641 579.318, 698.301 535.500 C 700.369 523.675, 700.404 520.977, 700.718 350.500 C 700.916 243.322, 700.678 176.739, 700.093 175.500 C 699.573 174.400, 698.618 169.675, 697.969 165 C 692.336 124.377, 671.439 83.735, 641.400 54.980 C 615.163 29.864, 585.964 13.857, 551.500 5.695 C 526.213 -0.294, 536.444 -0.013, 349.185 0.138 C 208.148 0.252, 175.983 0.524, 169 1.662 M 176 63.666 C 146.415 68.326, 121.416 80.832, 101.124 101.124 C 83.656 118.592, 72.782 137.955, 65.814 164 L 63.540 172.500 63.213 345.500 C 62.873 524.853, 62.868 524.630, 66.979 540.500 C 77.538 581.264, 108.758 615.373, 148.931 630.034 C 157.694 633.232, 161.997 634.328, 174.500 636.545 C 186.777 638.722, 514.580 638.652, 527 636.470 C 553.066 631.890, 574.415 621.864, 593.201 605.380 C 616.447 584.982, 630.875 558.846, 636.470 527 C 638.652 514.580, 638.722 186.777, 636.545 174.500 C 633.314 156.279, 629.841 145.986, 621.911 131.136 C 605.587 100.564, 574.922 76.075, 542 67.319 C 525.389 62.901, 529.733 62.995, 349.500 63.138 C 255.450 63.212, 177.375 63.450, 176 63.666 M 533 117.660 C 513.670 120.655, 499.638 132.678, 494.386 150.745 C 492.194 158.283, 492.896 171.616, 495.886 179.240 C 502.474 196.044, 517.595 206.846, 535.841 207.784 C 549.865 208.505, 560.978 204.196, 570.755 194.247 C 584.398 180.365, 587.489 159.740, 578.566 142.131 C 570.305 125.828, 550.148 115.003, 533 117.660 M 324 171.897 C 302.178 175.394, 285.347 180.975, 266.035 191.116 C 249.947 199.564, 236.473 209.554, 223.014 223.014 C 194.414 251.614, 177.132 286.630, 171.446 327.500 C 169.504 341.462, 169.932 366.011, 172.362 380 C 184.771 451.431, 237.523 508.168, 307.500 525.346 C 322.505 529.029, 332.708 530.169, 350.446 530.145 C 400.059 530.076, 442.604 512.464, 477.534 477.534 C 505.758 449.310, 522.552 416.189, 528.528 376.962 C 530.436 364.444, 530.672 337.995, 528.983 325.946 C 518.900 253.971, 466.450 194.595, 396.500 175.969 C 375.052 170.258, 344.820 168.560, 324 171.897 M 0.489 350.500 C 0.489 446.200, 0.606 485.202, 0.750 437.171 C 0.894 389.140, 0.894 310.840, 0.750 263.171 C 0.606 215.502, 0.489 254.800, 0.489 350.500 M 332.306 233.532 C 291.723 240.955, 259.999 264.983, 243.061 301.129 C 230.312 328.334, 228.743 358.221, 238.516 387.671 C 242.719 400.334, 246.203 407.279, 253.479 417.500 C 270.422 441.300, 292.110 456.382, 321.500 464.804 C 329.757 467.170, 332.110 467.387, 350 467.428 C 365.607 467.464, 370.798 467.121, 376 465.710 C 400.074 459.180, 417.158 449.672, 432.976 434 C 449.493 417.636, 458.972 400.840, 465.710 376 C 467.121 370.798, 467.464 365.607, 467.428 350 C 467.387 332.110, 467.170 329.757, 464.804 321.500 C 456.385 292.119, 441.351 270.496, 417.500 253.460 C 393.742 236.491, 359.686 228.525, 332.306 233.532 " stroke="none" fill="black" fill-rule="evenodd" xmlns="http://www.w3.org/2000/svg"/><path stroke="black" stroke-width="1" d=""/></svg>