<svg xmlns="http://www.w3.org/2000/svg" width="700" height="700" viewBox="0 0 700 700"><path d="M 328.500 29.085 C 270.983 32.312, 210.871 53.944, 162.500 88.821 C 136.315 107.701, 107.701 136.315, 88.821 162.500 C 60.074 202.369, 39.669 251.618, 32.473 298.500 C 29.317 319.059, 28.818 326.103, 28.820 350 C 28.822 374.071, 29.416 382.559, 32.492 402.500 C 39.979 451.039, 61.771 502.162, 92.381 542.998 C 116.825 575.607, 149.266 605.043, 183.598 625.763 C 234.497 656.481, 290.381 672.003, 350 671.980 C 434.481 671.948, 512.875 640.489, 572.892 582.534 C 628.109 529.215, 661.099 462.806, 670.028 387 C 674.512 348.936, 671.488 305.405, 661.866 269.500 C 658.655 257.519, 650.291 232.106, 649.030 230.500 C 648.598 229.950, 647.910 228.375, 647.500 227 C 644.634 217.383, 628.265 187.286, 616.333 169.697 C 594.588 137.643, 563.318 106.377, 530.500 83.874 C 483.115 51.384, 426.656 32.257, 368.500 28.993 C 349.838 27.945, 348.777 27.947, 328.500 29.085 M 321 43.685 C 313.711 44.228, 290.187 48.051, 281 50.185 C 260.890 54.856, 238.277 62.678, 219.297 71.528 C 168.565 95.184, 123.007 135.035, 91.743 183.101 C 72.939 212.011, 58.363 246.075, 50.494 279.500 C 45.480 300.797, 43.838 315.036, 43.286 342.001 C 42.713 370.013, 43.567 384.092, 46.997 403.197 C 55.004 447.789, 70.234 485.396, 95.477 522.904 C 127.855 571.015, 175.052 610.179, 227.500 632.456 C 233.550 635.026, 239.400 637.537, 240.500 638.036 C 243.595 639.440, 256.544 643.663, 266.500 646.516 C 329.193 664.476, 399.760 661.148, 461.500 637.319 C 475.771 631.811, 499.406 619.888, 513 611.339 C 603.647 554.331, 657.965 456.614, 657.992 350.500 C 658.011 279.782, 634.676 213.523, 590.078 157.655 C 539.205 93.927, 461.468 51.582, 381.500 44.039 C 371.508 43.097, 331.994 42.865, 321 43.685 M 320.684 162.077 C 286.227 169.414, 261.429 188.586, 246.049 219.778 C 238.993 234.086, 238.500 237.882, 238.500 277.864 L 238.500 313.229 233.262 312.688 C 230.381 312.390, 224.995 310.935, 221.293 309.454 C 215.660 307.200, 213.529 306.844, 208.228 307.270 C 195.625 308.281, 186.911 317.254, 188.465 327.618 C 189.797 336.500, 198.227 342.812, 218.500 350.105 C 229.326 354, 233.390 356.488, 235.603 360.577 C 237.537 364.150, 236.833 367.245, 231.753 377.500 C 217.001 407.279, 191.232 429.329, 162.725 436.564 C 151.848 439.325, 149 441.720, 149 448.105 C 149 456.997, 155.747 463.633, 170.169 468.923 C 176.013 471.067, 189.769 474.419, 197.278 475.529 C 202.678 476.327, 203.121 476.902, 204.954 485.500 C 207.107 495.597, 210.430 500.220, 216.398 501.424 C 217.992 501.746, 224.967 501.061, 231.898 499.902 C 241.267 498.335, 246.809 497.941, 253.500 498.365 C 268.791 499.334, 274.837 501.941, 296 516.691 C 315.852 530.527, 329.045 535, 350.002 535 C 370.793 535, 381.033 531.446, 403.532 516.420 C 421.956 504.117, 426.652 501.944, 438.036 500.455 C 447.792 499.179, 456.489 499.603, 470.274 502.024 C 474 502.678, 478.578 502.927, 480.447 502.576 C 484.806 501.758, 489.517 496.461, 490.416 491.367 C 491.656 484.339, 494.102 478.102, 495.815 477.599 C 496.742 477.326, 500.425 476.606, 504 475.997 C 521.340 473.046, 537.498 466.614, 542.833 460.538 C 550.559 451.739, 548.641 440.054, 539.207 438.440 C 526.558 436.277, 512.303 430.254, 501.500 422.509 C 482.966 409.220, 460 377.178, 460 364.608 C 460 359.843, 465.734 355.077, 475.791 351.483 C 497.819 343.612, 508 335.396, 508 325.492 C 508 321.673, 504.474 315.463, 500.647 312.544 C 492.529 306.352, 482.459 305.580, 472 310.346 C 466.889 312.674, 463.488 313.370, 458.492 313.106 C 456.555 313.004, 456.512 312.589, 457.270 301.250 C 458.491 282.974, 458.418 252.340, 457.132 243.480 C 455.605 232.960, 452.433 224.111, 446.411 213.564 C 430.990 186.560, 405.976 168.786, 373.848 162.004 C 361.039 159.301, 333.546 159.339, 320.684 162.077 M 323.500 173.014 C 307.029 176.813, 295.728 182.109, 283.881 191.582 C 270.501 202.281, 259.444 218.393, 254.816 233.935 C 252.293 242.408, 251.357 272.152, 252.834 296.935 C 253.537 308.749, 253.545 314.982, 252.857 316.268 C 252.298 317.312, 249.514 319.249, 246.670 320.573 C 239.613 323.859, 230.702 323.839, 220.288 320.513 C 216.005 319.145, 211.233 318.020, 209.684 318.013 C 205.945 317.996, 203 319.665, 203 321.801 C 203 324.057, 212.200 330.071, 218 331.607 C 256.989 341.927, 259.716 364.661, 226.927 406.037 C 212.003 424.870, 192.427 438.890, 172.250 445.194 C 168.263 446.440, 165 447.754, 165 448.113 C 165 449.830, 183.613 455.862, 197 458.483 C 201.675 459.399, 206.625 460.678, 208 461.326 C 210.990 462.736, 214.181 468.875, 217.055 478.748 C 218.936 485.208, 219.401 485.946, 221.333 485.535 C 233.888 482.860, 255.870 482.055, 265.589 483.914 C 275.206 485.753, 285.471 490.956, 297.728 500.204 C 308.787 508.548, 320.093 514.872, 327.525 516.871 C 340.857 520.455, 356.692 520.937, 367.500 518.087 C 378.200 515.265, 382.119 513.214, 400.599 500.770 C 419.324 488.162, 425.269 485.430, 437.419 483.852 C 446.109 482.723, 463.974 483.372, 472.085 485.112 C 477.763 486.329, 480 485.304, 480 481.483 C 480 480.233, 480.889 476.333, 481.975 472.816 C 484.904 463.332, 487.111 461.739, 501 459.088 C 507.325 457.881, 514.750 456.215, 517.500 455.387 C 523.980 453.434, 532 449.861, 532 448.926 C 532 448.524, 528.901 447.253, 525.112 446.103 C 498.018 437.873, 471.241 414.462, 455.142 384.928 C 446.733 369.501, 445.177 360.456, 449.381 351.429 C 453.201 343.225, 460.342 338.425, 477.500 332.530 C 488.871 328.623, 495 325.240, 495 322.871 C 495 321.545, 489.329 319, 486.375 319 C 484.876 319, 480.244 320.176, 476.081 321.613 C 469.641 323.835, 467.278 324.160, 460.240 323.791 C 453.047 323.413, 451.417 322.967, 447.734 320.365 L 443.500 317.374 444 303.937 C 444.275 296.547, 444.477 280.150, 444.449 267.500 C 444.391 241.209, 443.296 234.140, 437.522 222.774 C 423.743 195.651, 402.950 179.589, 373 172.932 C 361.255 170.322, 334.983 170.365, 323.500 173.014 " stroke="none" fill="black" fill-rule="evenodd" xmlns="http://www.w3.org/2000/svg"/><path stroke="black" stroke-width="1" d=""/></svg>