<svg xmlns="http://www.w3.org/2000/svg" width="700" height="700" viewBox="0 0 700 700"><path d="M 325.500 0.495 C 324.950 0.722, 318.200 1.615, 310.500 2.480 C 202.631 14.596, 107.761 75.494, 50.307 169.500 C 24.933 211.018, 8.942 257.961, 2.276 310.500 C -0.171 329.792, -0.182 369.894, 2.255 389.926 C 6.763 426.976, 15.428 458.700, 30.101 491.869 C 67.156 575.640, 135.096 641.177, 220.500 675.536 C 250.555 687.627, 287.282 696.386, 318.924 699.009 C 334.017 700.260, 367.426 700.249, 382 698.988 C 452.745 692.868, 524.170 662.773, 577.500 616.615 C 647.386 556.126, 688.788 476.774, 699.128 383.500 C 700.541 370.753, 701.375 324.650, 700.179 325.389 C 699.690 325.691, 699.030 321.790, 698.712 316.719 C 697.036 290.030, 687.380 249.940, 675.536 220.500 C 632.641 113.878, 540.630 34.847, 429.500 9.172 C 402.026 2.825, 383.752 0.752, 352 0.380 C 337.975 0.216, 326.050 0.267, 325.500 0.495 M 323 189.614 C 270.106 195.983, 230.187 214.266, 199.409 246.221 C 181.282 265.041, 170.937 283.589, 164.952 308 C 161.589 321.715, 161.584 346.266, 164.940 359.944 C 170.977 384.546, 184.842 408.245, 203.606 426.036 C 207.398 429.631, 211.727 433.513, 213.228 434.663 C 217.054 437.595, 218 440.825, 218 450.960 C 218 466.368, 213.187 477.908, 202.718 487.601 C 197.265 492.649, 192.580 495.380, 181.684 499.859 C 179.416 500.792, 178.930 501.550, 179.184 503.758 C 179.630 507.633, 184.425 509.649, 196.274 510.945 C 225.716 514.166, 258.679 502.616, 287.558 478.961 L 294.616 473.179 300.558 474.537 C 309.007 476.468, 333.373 479, 343.500 479 C 355.312 479, 378.151 476.365, 391.664 473.444 C 408.440 469.816, 422.773 464.716, 439.500 456.422 C 483.140 434.781, 511.875 401.227, 522.070 360 C 525.298 346.949, 525.411 320.754, 522.294 308.476 C 515.733 282.638, 504.699 263.327, 485.305 243.743 C 458.496 216.670, 424.050 199.767, 379.500 191.824 C 368.880 189.930, 332.268 188.499, 323 189.614 M 0.432 350 C 0.432 363.475, 0.574 368.988, 0.747 362.250 C 0.920 355.512, 0.920 344.488, 0.747 337.750 C 0.574 331.012, 0.432 336.525, 0.432 350 " stroke="none" fill="black" fill-rule="evenodd" xmlns="http://www.w3.org/2000/svg"/><path stroke="black" stroke-width="1" d=""/></svg>