<svg xmlns="http://www.w3.org/2000/svg" width="700" height="700" viewBox="0 0 700 700"><path d="M 311 29.984 C 207.971 34.160, 143.513 55.436, 97.388 100.494 C 66.499 130.668, 45.063 174.589, 36.407 225.438 C 35.570 230.355, 34.705 234.668, 34.486 235.023 C 34.266 235.378, 33.120 244.856, 31.938 256.084 C 28.843 285.504, 28.830 329.807, 31.910 356.500 C 35.347 386.295, 38.932 403.308, 46.975 428 C 55.795 455.075, 71.164 482.583, 88.434 502.206 C 109.732 526.407, 132.185 542.602, 162.500 555.628 L 174.500 560.785 175.039 598.642 C 175.607 638.613, 175.710 639.527, 180.742 649.472 C 184.322 656.546, 194.608 666.479, 201.683 669.695 C 206.608 671.933, 208.957 672.350, 217 672.411 C 225.139 672.472, 227.530 672.081, 233.688 669.678 C 244.332 665.524, 248.639 662.163, 259 649.925 C 268.860 638.279, 316.374 584.453, 317.402 583.765 C 318.006 583.361, 333.286 583.024, 351.358 583.015 C 400.348 582.992, 444.010 579.645, 475 573.535 C 548.086 559.126, 597.443 529.195, 629.241 480 C 635.685 470.030, 640.951 460.247, 645.122 450.500 C 646.770 446.650, 648.529 442.600, 649.032 441.500 C 650.956 437.290, 656.251 420.903, 659.372 409.500 C 666.429 383.713, 671.002 342.944, 670.998 305.850 C 670.988 203.288, 643.639 130.758, 588.421 86.855 C 569.956 72.174, 551.587 62.113, 525.543 52.417 C 506.475 45.318, 484.253 39.961, 455.500 35.532 C 424.941 30.824, 355.784 28.169, 311 29.984 M 302 59.278 C 301.725 59.533, 296.775 60.006, 291 60.329 C 210.800 64.822, 156.808 83.169, 120.296 118.337 C 102.142 135.822, 90.969 152.665, 78.728 181 C 72.046 196.467, 64.561 227.641, 61.921 251 C 59.497 272.443, 59.070 280.748, 59.036 307.043 C 58.878 428.926, 95.534 497.773, 178.011 530.504 C 184.241 532.977, 189.796 535, 190.354 535 C 193.106 535, 200.158 539.519, 201.962 542.439 C 203.931 545.624, 204 547.213, 204 589.303 C 204 614.004, 204.406 633.938, 204.938 635.337 C 206.618 639.755, 212.535 643.339, 218.914 643.800 C 225.655 644.288, 223.584 646.126, 248.549 617.500 C 257.184 607.600, 265.433 598.150, 266.882 596.500 C 268.330 594.850, 276.584 585.394, 285.223 575.486 C 293.862 565.578, 302.253 556.691, 303.870 555.736 C 306.505 554.179, 310.458 553.994, 342.154 553.943 C 403.453 553.845, 442.617 550.875, 479 543.566 C 491.384 541.078, 508.251 536.071, 520.500 531.247 C 544.726 521.706, 563.708 510.021, 579.379 495.004 C 607.537 468.023, 624.435 435.115, 634.328 388 C 640.317 359.476, 642.764 321.175, 641.010 283.407 C 640.421 270.705, 639.525 256.980, 639.020 252.907 C 631.368 191.133, 613.004 149.177, 579.678 117.322 C 564.808 103.110, 540.458 88.084, 519.987 80.489 C 496.702 71.849, 461.134 64.367, 432 61.978 C 425.125 61.415, 417.700 60.688, 415.500 60.364 C 410.670 59.653, 302.711 58.619, 302 59.278 M 344.500 118.403 C 334.023 123.027, 332.939 137.327, 342.586 143.648 C 344.394 144.833, 349.590 145.710, 360.322 146.642 C 391.892 149.384, 416.725 158.450, 439.500 175.548 C 446.214 180.588, 460.881 194.770, 464.789 200 C 471.688 209.232, 476.664 217.400, 481.371 227.219 C 489.849 244.903, 493.646 259.336, 495.127 279.500 C 495.693 287.200, 496.352 294.504, 496.592 295.732 C 497.296 299.329, 502.569 304.538, 506.982 305.994 C 510.634 307.199, 511.556 307.139, 515.681 305.421 C 523.669 302.095, 524.514 300.038, 524.414 284.164 C 523.998 217.857, 474.834 151.509, 408.232 127.374 C 385.506 119.138, 353.151 114.584, 344.500 118.403 M 210.500 147.927 C 187.225 154.851, 165.989 173.065, 155.257 195.311 C 149.374 207.506, 146.004 221.463, 146.001 233.643 C 145.993 271.478, 192.479 358.025, 237 403.065 C 254.636 420.907, 276.972 437.919, 306.274 455.830 C 335.655 473.789, 365.881 487.539, 387.664 492.854 C 404.763 497.026, 408.015 497.308, 418.651 495.542 C 441.178 491.800, 456.924 483.852, 471.919 468.654 C 480.208 460.252, 484.190 454.720, 489.328 444.471 C 494.946 433.264, 496 427.504, 496 408.007 C 496 389.315, 495.197 385.669, 490.383 382.515 C 489.039 381.634, 473.916 373.920, 456.778 365.373 C 423.008 348.532, 419.858 347.463, 408.669 349.047 C 397.252 350.664, 380.378 359.838, 366.745 371.841 L 360.989 376.908 357.110 375.539 C 347.715 372.224, 330.487 362.551, 319 354.140 C 307.272 345.553, 292.523 329.979, 283.805 316.976 C 276.082 305.457, 266.041 286.094, 266.014 282.666 C 266.006 281.658, 268.641 277.608, 271.869 273.666 C 287.607 254.451, 293.469 241.737, 293.389 227 L 293.343 218.500 276.344 184.500 C 255.411 142.635, 259.131 146.009, 234 146.088 C 220.233 146.131, 215.220 146.523, 210.500 147.927 M 214.466 176.983 C 194.614 183.855, 181.440 198.578, 176.940 218.923 C 175.897 223.640, 175.034 229.300, 175.022 231.500 C 174.995 236.414, 177.468 249.754, 179.656 256.500 C 192.346 295.627, 228.213 353.302, 258.965 384.031 C 284.302 409.349, 334.857 442.495, 369.500 456.504 C 386.830 463.511, 392.924 465.145, 404.356 465.848 C 424.504 467.087, 437.735 462.886, 449.979 451.363 C 457.678 444.116, 464.266 432.628, 465.918 423.566 C 467.148 416.820, 467.335 404.998, 466.235 403.499 C 465.831 402.949, 453.855 396.684, 439.622 389.576 L 413.744 376.654 409.122 377.873 C 402.385 379.651, 395.334 384.710, 382.597 396.907 C 368.443 410.460, 367.093 410.830, 352.331 405.202 C 327.590 395.770, 302.647 380.232, 284.809 363.139 C 264.756 343.923, 248.739 319.519, 237.633 291.257 C 232.940 279.316, 232.795 273.964, 237.006 268.150 C 238.660 265.868, 240.438 264, 240.957 264 C 241.476 264, 245.681 259.710, 250.302 254.466 C 259.076 244.506, 265 234.640, 265 229.985 C 265 228.477, 259.133 215.540, 251.911 201.126 L 238.822 175 229.161 175.120 C 222.850 175.198, 217.754 175.844, 214.466 176.983 M 343.556 177.267 C 336.418 181.310, 333.730 189.709, 337.339 196.689 C 339.928 201.695, 344.312 203.685, 354.500 204.478 C 392.285 207.420, 418.809 226.431, 432.427 260.332 C 434.386 265.207, 436.995 279.082, 437.976 289.834 C 438.879 299.743, 440.617 302.630, 447.373 305.444 C 451.497 307.161, 452.475 307.234, 455.770 306.074 C 466.879 302.163, 469.142 293.669, 464.915 271.742 C 460.336 247.990, 449.916 228.824, 431.563 210.396 C 412.905 191.662, 393.747 181.551, 368.081 176.892 C 354.219 174.375, 348.507 174.463, 343.556 177.267 M 341.898 236.357 C 333.616 242.137, 333.708 254.095, 342.079 260.056 C 344.279 261.623, 347.467 262.500, 352.978 263.056 C 357.359 263.497, 362.460 264.713, 364.634 265.833 C 372.654 269.965, 378.935 279.507, 378.978 287.625 C 379.031 297.600, 382.932 303.701, 390.755 306.045 C 394.463 307.156, 395.488 307.084, 399.090 305.459 C 401.350 304.440, 404.391 302.042, 405.849 300.130 C 408.144 297.120, 408.485 295.757, 408.385 289.987 C 408.011 268.343, 390.993 245.857, 368 236.627 C 365.370 235.571, 359.760 234.618, 354.500 234.332 C 346.100 233.877, 345.260 234.012, 341.898 236.357 " stroke="none" fill="black" fill-rule="evenodd" xmlns="http://www.w3.org/2000/svg"/><path stroke="black" stroke-width="1" d=""/></svg>