<svg xmlns="http://www.w3.org/2000/svg" width="700" height="700" viewBox="0 0 700 700"><path d="M 220.500 68.551 C 216.650 69.280, 211.624 69.905, 209.331 69.939 C 207.038 69.972, 202.538 70.627, 199.331 71.392 C 196.124 72.158, 189.900 73.546, 185.500 74.476 C 181.100 75.407, 176.375 76.547, 175 77.010 C 173.625 77.472, 169.125 78.818, 165 80 C 157.196 82.236, 153.567 83.452, 148.500 85.530 C 146.850 86.207, 143.025 87.756, 140 88.972 C 133.819 91.457, 111.911 102.265, 107.858 104.829 C 106.405 105.748, 102.355 108.273, 98.858 110.441 C 85.664 118.619, 72.023 129.818, 57.770 144.174 C 49.668 152.334, 42.254 160.246, 41.295 161.755 C 40.336 163.265, 37.232 167.650, 34.398 171.500 C 27.606 180.725, 19.642 195.186, 12.919 210.500 C 9.042 219.332, 3.654 238.822, 2.484 248.250 C 2.091 251.412, 1.371 254, 0.885 254 C 0.396 254, 0 264.750, 0 278 C 0 291.284, 0.396 302, 0.886 302 C 1.374 302, 2.070 304.137, 2.434 306.750 C 4.328 320.357, 9.897 338.703, 16.089 351.729 C 18.240 356.256, 20 360.203, 20 360.501 C 20 362.417, 37.313 389.060, 41.182 393.097 C 41.921 393.869, 44.850 397.425, 47.690 401 C 53.033 407.725, 66.244 420.999, 71.500 424.924 C 77.570 429.456, 83.616 434.616, 88.097 439.087 C 94.517 445.495, 94.963 450.282, 90.601 466 C 84.160 489.214, 81 502.074, 81 505.073 C 81 506.944, 81.933 509.024, 83.455 510.545 C 86.911 514.002, 91.100 514.126, 96.359 510.927 C 98.087 509.877, 100.175 508.705, 101 508.323 C 101.825 507.941, 105.650 505.778, 109.500 503.515 C 113.350 501.252, 117.175 499.080, 118 498.689 C 118.825 498.298, 120.850 497.088, 122.500 496 C 124.150 494.912, 126.175 493.712, 127 493.334 C 127.825 492.956, 130.159 491.613, 132.186 490.351 C 141.187 484.746, 152.631 478.890, 157.280 477.509 C 161.790 476.170, 163.212 476.173, 170.419 477.539 C 174.863 478.381, 180.075 479.500, 182 480.026 C 183.925 480.551, 187.975 481.458, 191 482.041 C 194.025 482.625, 199.650 483.777, 203.500 484.602 C 213.085 486.655, 243.322 489.072, 255.500 488.758 L 265.500 488.500 265.819 485.174 C 265.995 483.344, 265.458 479.519, 264.626 476.674 C 258.802 456.739, 257.736 428.449, 261.963 406 C 263.258 399.122, 268.348 381.546, 270.506 376.500 C 273.489 369.525, 279.154 358.148, 281.958 353.500 C 283.616 350.750, 285.293 347.825, 285.684 347 C 286.075 346.175, 289.048 341.900, 292.292 337.500 C 308.401 315.650, 327.724 297.788, 350.532 283.666 C 360.159 277.705, 380.034 267.571, 389 264.052 C 392.025 262.864, 395.400 261.515, 396.500 261.052 C 400.173 259.509, 409.364 256.686, 423 252.915 C 425.475 252.230, 429.525 251.343, 432 250.942 C 434.475 250.542, 438.975 249.737, 442 249.155 C 455.859 246.485, 463.812 245.711, 481.500 245.308 C 491.950 245.071, 500.997 244.718, 501.605 244.525 C 503.688 243.863, 500.243 229.431, 494.199 213.500 C 488.895 199.520, 477.269 178.502, 468.214 166.522 C 458.527 153.707, 442.136 136.458, 432.797 129.254 C 430.833 127.739, 427.263 124.876, 424.863 122.891 C 409.318 110.034, 378.163 92.757, 357.500 85.536 C 354.750 84.575, 351.600 83.424, 350.500 82.979 C 337.674 77.789, 310.089 71.526, 287 68.563 C 271.399 66.560, 231.043 66.553, 220.500 68.551 M 157.419 179.420 C 146.176 184.315, 138.565 193.081, 136.823 203.141 C 135.485 210.868, 135.486 211.179, 136.857 217.761 C 139.289 229.441, 150.115 240.217, 161.496 242.286 C 168.016 243.472, 168.397 243.470, 175.802 242.186 C 185.870 240.442, 195.381 232.329, 199.400 222.057 C 201.625 216.369, 201.634 205.424, 199.418 198.753 C 197.143 191.903, 187.483 182.200, 180.496 179.745 C 174.511 177.643, 161.908 177.465, 157.419 179.420 M 327.707 178.698 C 322.199 180.128, 313.787 186.528, 310.175 192.037 C 308.539 194.533, 306.424 199.668, 305.476 203.450 C 303.848 209.940, 303.847 210.724, 305.455 217.413 C 306.639 222.340, 308.328 226.054, 310.997 229.598 C 315.631 235.752, 324.627 242, 328.854 242 C 330.513 242, 332.912 242.396, 334.185 242.879 C 336.979 243.940, 346.062 242.479, 351 240.174 C 363.546 234.319, 370.633 222.212, 369.831 208.009 C 369.153 196.019, 361.968 185.687, 350.640 180.413 C 346.471 178.472, 343.988 178.040, 337.500 178.126 C 333.100 178.184, 328.693 178.442, 327.707 178.698 M 471 261.542 C 447.384 263.379, 436.631 265.440, 412.500 272.754 C 391.591 279.092, 365.367 292.795, 346.149 307.426 C 323.965 324.314, 302.373 350.419, 292.964 371.726 C 291.804 374.352, 290.263 377.850, 289.539 379.500 C 280.853 399.286, 276.785 425.989, 278.911 449.256 C 280.824 470.204, 284.876 484.639, 294.138 503.500 C 302.214 519.947, 312.250 534.039, 325.364 547.346 C 343.053 565.296, 359.415 577.042, 382.500 588.363 C 401.921 597.888, 409.156 600.335, 441 608.147 C 451.500 610.722, 482.929 613.264, 495 612.513 C 511.372 611.495, 531.214 609.254, 534.315 608.072 C 535.863 607.483, 538.299 607, 539.727 607 C 541.156 607, 544.614 606.354, 547.412 605.565 C 556.880 602.893, 564.492 602.084, 569.112 603.256 C 572.669 604.159, 583.313 609.649, 590 614.030 C 590.825 614.571, 592.175 615.320, 593 615.696 C 593.825 616.071, 598.453 618.768, 603.285 621.689 C 608.117 624.610, 612.260 627, 612.491 627 C 612.723 627, 615.202 628.350, 618 630 C 624.677 633.937, 628.207 633.923, 631.038 629.947 C 633.374 626.666, 633.344 625.876, 630.492 615.500 C 620.755 580.076, 620.640 579.313, 624.250 573.958 C 625.487 572.123, 630.325 567.525, 635 563.742 C 656.448 546.384, 673.107 525.956, 684.317 503.261 C 690.440 490.869, 696.265 473.625, 697.497 464.251 C 697.877 461.364, 698.595 458.750, 699.094 458.442 C 700.304 457.694, 700.282 415, 699.072 415 C 698.562 415, 697.855 412.413, 697.502 409.250 C 697.149 406.087, 696.475 402.375, 696.004 401 C 695.534 399.625, 694.146 395.125, 692.920 391 C 691.693 386.875, 690.326 382.825, 689.880 382 C 689.191 380.724, 687.077 375.846, 684.680 370 C 684.341 369.175, 682.706 366.250, 681.045 363.500 C 679.385 360.750, 677.719 357.825, 677.342 357 C 676.149 354.383, 664.947 338.863, 661.175 334.600 C 643.753 314.912, 621.075 297.494, 597.367 285.590 C 591.244 282.515, 585.912 280, 585.518 280 C 585.124 280, 583.384 279.388, 581.651 278.641 C 575.323 275.910, 572.697 274.921, 566.659 272.993 C 556.551 269.766, 550.935 268.251, 542.500 266.476 C 538.100 265.551, 532.680 264.406, 530.456 263.934 C 526.976 263.195, 516.520 262.276, 493 260.641 C 489.975 260.431, 480.075 260.836, 471 261.542 M 410.703 354.381 C 400.823 358.065, 395.353 364.164, 392.399 374.789 C 390.878 380.260, 390.881 381.079, 392.444 386.455 C 395.617 397.370, 401.076 403.103, 411.764 406.745 C 419.814 409.488, 431.394 406.458, 438.168 399.836 C 439.787 398.253, 442.207 394.606, 443.546 391.729 C 449.868 378.150, 444.071 362.590, 430.045 355.486 C 425.426 353.147, 415.528 352.582, 410.703 354.381 M 551 354.803 C 540.513 358.812, 535.138 364.763, 533.057 374.668 C 531.583 381.688, 532.725 388.981, 536.204 394.750 C 540.380 401.678, 551.496 408, 559.500 408 C 564.132 408, 571.987 405.095, 576.148 401.844 C 578.154 400.277, 581.236 396.748, 582.998 394.004 C 585.959 389.388, 586.200 388.373, 586.200 380.500 C 586.200 372.627, 585.959 371.612, 582.998 366.996 C 575.401 355.158, 562.716 350.325, 551 354.803 " stroke="none" fill="black" fill-rule="evenodd" xmlns="http://www.w3.org/2000/svg"/><path stroke="black" stroke-width="1" d=""/></svg>