<svg id="svg" xmlns="http://www.w3.org/2000/svg" xmlns:xlink="http://www.w3.org/1999/xlink" width="400" height="300" viewBox="0, 0, 400,300"><g id="svgg"><path id="path0" d="M160.659 49.559 C 160.107 50.489,159.375 51.965,159.032 52.839 C 158.689 53.713,157.979 54.816,157.454 55.291 C 156.929 55.766,156.500 56.680,156.500 57.321 C 156.500 58.181,156.041 58.679,154.750 59.218 C 153.209 59.861,153.000 60.164,153.000 61.749 C 153.000 63.394,151.834 66.500,151.217 66.500 C 150.820 66.500,147.771 64.298,147.583 63.875 C 147.047 62.668,144.039 63.626,139.731 66.376 C 139.191 66.721,138.297 67.201,137.744 67.444 C 137.123 67.716,136.507 68.751,136.132 70.150 C 135.638 72.000,135.272 72.473,134.138 72.731 C 132.297 73.151,130.425 74.845,129.389 77.028 C 128.926 78.004,128.086 79.220,127.523 79.729 C 126.961 80.238,126.500 80.867,126.500 81.125 C 126.500 81.384,126.041 82.240,125.481 83.027 C 122.349 87.425,120.909 96.409,123.000 98.500 C 125.451 100.951,124.163 103.095,119.423 104.451 C 117.678 104.951,115.194 105.841,113.902 106.430 C 112.611 107.018,111.116 107.500,110.579 107.500 C 107.992 107.500,104.960 114.489,107.000 115.750 C 108.481 116.665,106.784 123.184,104.910 123.779 C 104.409 123.937,104.000 124.277,104.000 124.534 C 104.000 124.790,103.719 125.007,103.375 125.015 C 103.031 125.023,102.042 125.673,101.178 126.461 L 99.605 127.892 99.428 136.071 C 99.253 144.100,99.225 144.283,97.875 146.047 C 95.561 149.072,96.301 153.722,99.454 155.967 C 102.270 157.972,103.649 163.081,101.250 162.622 C 100.563 162.491,100.000 162.185,100.000 161.942 C 100.000 160.907,98.665 161.644,97.620 163.256 C 96.999 164.215,96.242 165.000,95.938 165.000 C 95.634 165.000,93.161 166.069,90.443 167.375 L 85.501 169.750 85.500 171.845 C 85.500 172.998,85.725 174.080,86.000 174.250 C 86.842 174.771,86.556 176.981,85.500 178.115 C 83.460 180.305,85.201 184.500,88.150 184.500 C 88.807 184.500,89.752 184.950,90.250 185.500 C 90.879 186.195,91.790 186.500,93.237 186.500 C 96.780 186.500,98.913 188.864,99.102 193.000 L 99.250 196.250 101.503 196.397 C 103.826 196.549,105.500 198.765,105.500 201.689 C 105.500 202.415,105.779 202.563,106.780 202.372 C 107.743 202.188,108.257 202.427,108.853 203.337 C 109.490 204.309,109.923 204.486,111.056 204.238 C 112.972 203.817,114.963 205.281,114.984 207.125 C 114.999 208.411,115.141 208.500,117.163 208.500 C 118.789 208.500,119.601 208.793,120.434 209.680 C 121.554 210.872,125.682 211.608,132.000 211.742 C 134.477 211.795,136.500 212.346,136.500 212.968 C 136.500 214.283,141.014 213.884,143.118 212.383 C 143.828 211.877,144.313 211.941,145.796 212.740 C 147.510 213.663,147.640 213.668,148.244 212.843 C 148.797 212.086,148.921 212.072,149.175 212.735 C 149.337 213.156,149.786 213.500,150.173 213.500 C 150.561 213.500,151.137 213.813,151.454 214.194 C 152.293 215.205,156.513 216.187,157.174 215.526 C 158.004 214.696,160.500 214.873,160.500 215.762 C 160.500 216.216,161.131 216.651,162.059 216.837 C 163.343 217.094,163.795 217.577,164.631 219.588 L 165.645 222.029 169.448 221.745 C 177.622 221.135,178.333 220.992,179.527 219.722 C 181.480 217.643,187.020 218.800,186.238 221.124 C 186.030 221.743,185.760 223.511,185.639 225.053 L 185.418 227.856 187.334 228.172 C 188.388 228.347,189.869 228.491,190.625 228.494 C 191.862 228.499,192.000 228.676,192.000 230.250 L 192.000 232.000 194.875 231.962 C 200.076 231.893,203.500 229.907,203.500 226.958 C 203.500 222.406,210.408 219.445,211.507 223.526 C 211.807 224.640,212.362 225.670,212.741 225.816 C 213.120 225.961,213.659 226.737,213.939 227.540 C 214.565 229.337,216.329 229.489,219.250 228.000 C 220.329 227.450,221.558 226.995,221.981 226.989 C 223.177 226.972,227.089 225.069,227.730 224.192 C 228.584 223.025,230.630 223.519,231.371 225.070 C 231.811 225.991,232.682 226.591,234.251 227.054 C 235.774 227.504,236.500 227.993,236.500 228.568 C 236.500 230.756,236.956 231.000,241.053 231.000 C 244.531 231.000,245.000 231.108,245.000 231.906 C 245.000 233.385,247.591 235.500,249.402 235.500 C 250.721 235.500,251.003 235.303,251.017 234.375 C 251.046 232.381,253.577 229.328,255.598 228.850 C 257.293 228.450,257.459 228.240,257.982 225.835 C 258.291 224.413,258.749 222.463,259.000 221.500 C 259.250 220.537,259.585 218.923,259.743 217.912 C 259.902 216.902,260.583 215.552,261.257 214.912 C 261.931 214.273,262.487 213.517,262.491 213.233 C 262.504 212.503,265.192 211.000,266.486 211.000 C 267.080 211.000,268.304 210.438,269.206 209.750 C 270.107 209.063,271.389 208.500,272.055 208.500 C 272.720 208.500,274.049 208.085,275.007 207.577 C 275.966 207.069,278.044 206.251,279.625 205.758 C 281.206 205.266,282.500 204.686,282.500 204.470 C 282.500 204.254,283.260 203.827,284.190 203.520 C 285.119 203.213,286.279 202.521,286.767 201.981 C 287.255 201.442,287.961 201.000,288.334 201.000 C 288.708 201.000,289.461 200.775,290.007 200.500 C 292.426 199.282,292.879 199.106,294.516 198.747 C 295.470 198.538,297.262 197.858,298.500 197.236 C 299.738 196.613,302.550 195.839,304.750 195.515 C 311.674 194.495,312.238 194.390,312.750 194.025 C 316.056 191.665,319.835 192.362,324.988 196.281 C 326.593 197.501,328.152 198.500,328.453 198.500 C 328.754 198.500,329.000 198.725,329.000 199.000 C 329.000 200.176,331.284 199.434,332.104 197.992 C 333.376 195.758,334.983 195.343,338.662 196.301 C 344.473 197.813,346.500 197.812,346.500 196.298 C 346.500 195.116,346.680 195.000,348.504 195.000 C 350.984 195.000,354.398 192.696,355.380 190.359 C 355.750 189.480,356.378 188.578,356.776 188.355 C 357.174 188.133,357.500 187.511,357.500 186.975 C 357.500 186.439,357.710 186.000,357.966 186.000 C 358.223 186.000,358.589 185.506,358.781 184.902 C 358.973 184.299,359.801 182.712,360.623 181.377 C 362.337 178.591,362.427 174.702,360.851 171.548 C 360.383 170.612,360.000 169.446,360.000 168.957 C 360.000 168.468,359.494 167.914,358.875 167.726 C 357.024 167.165,355.500 165.443,355.500 163.913 C 355.500 162.970,355.242 162.500,354.725 162.500 C 353.858 162.500,350.506 159.069,350.502 158.178 C 350.501 157.864,350.165 157.479,349.756 157.322 C 348.948 157.012,350.596 153.500,351.549 153.500 C 351.797 153.500,352.000 152.180,352.000 150.567 C 352.000 147.230,350.721 145.000,348.807 145.000 C 347.522 145.000,345.000 142.597,345.000 141.372 C 345.000 140.920,344.696 140.370,344.325 140.150 C 343.954 139.930,343.333 139.075,342.944 138.250 C 342.359 137.007,341.857 136.699,340.020 136.453 C 338.800 136.290,337.715 135.896,337.609 135.578 C 337.503 135.260,336.873 135.000,336.208 135.000 C 335.544 135.000,334.999 134.831,334.998 134.625 C 334.997 134.419,334.041 133.885,332.873 133.438 C 331.061 132.745,329.794 132.356,325.658 131.219 C 325.250 131.107,325.153 130.215,325.347 128.339 C 325.610 125.788,325.535 125.539,324.126 124.283 C 323.067 123.340,322.542 122.329,322.344 120.853 C 322.160 119.483,321.663 118.453,320.906 117.870 C 320.270 117.380,319.225 116.534,318.583 115.990 C 317.940 115.445,317.209 115.000,316.958 115.000 C 316.706 115.000,316.500 114.672,316.500 114.270 C 316.500 113.852,315.646 113.284,314.500 112.941 C 313.400 112.611,312.500 112.045,312.500 111.682 C 312.500 111.320,311.938 110.654,311.250 110.204 C 310.064 109.427,310.000 109.146,310.000 104.692 C 310.000 101.940,309.796 100.000,309.507 100.000 C 307.617 100.000,302.500 94.646,302.500 92.669 C 302.500 92.026,302.275 91.500,302.000 91.500 C 301.725 91.500,301.500 91.749,301.500 92.054 C 301.500 92.409,301.006 92.484,300.128 92.264 C 297.770 91.672,297.397 91.065,297.762 88.410 C 298.039 86.399,297.962 86.000,297.297 86.000 C 296.859 86.000,296.500 86.217,296.500 86.482 C 296.500 88.723,292.255 88.037,291.474 85.670 C 290.930 84.023,289.837 83.227,286.828 82.284 C 286.320 82.125,285.788 81.546,285.644 80.997 C 285.467 80.320,284.961 79.999,284.067 79.998 C 283.343 79.997,282.070 79.581,281.238 79.074 C 280.406 78.567,278.876 77.872,277.838 77.529 C 276.799 77.186,275.680 76.469,275.350 75.934 C 275.020 75.399,273.571 74.618,272.129 74.197 C 269.279 73.364,268.000 72.044,268.000 69.933 C 268.000 68.657,267.855 68.577,265.125 68.359 C 261.493 68.068,258.308 67.227,256.626 66.115 C 255.906 65.639,254.065 64.780,252.534 64.207 C 250.596 63.480,249.551 62.756,249.093 61.822 C 248.732 61.085,247.832 60.100,247.093 59.634 C 246.354 59.167,245.075 58.145,244.250 57.362 C 242.792 55.979,242.620 55.943,238.124 56.094 C 234.673 56.210,233.498 56.091,233.499 55.625 C 233.499 55.281,233.270 55.000,232.989 55.000 C 232.708 55.000,231.610 54.425,230.549 53.723 C 228.930 52.652,228.148 52.471,225.685 52.598 L 222.750 52.750 222.915 56.063 C 223.097 59.739,221.998 61.561,219.107 62.370 C 216.426 63.121,199.370 62.822,198.000 62.000 C 197.313 61.587,195.850 61.015,194.750 60.728 L 192.750 60.205 192.604 56.353 C 192.499 53.595,192.273 52.500,191.806 52.500 C 191.448 52.500,190.731 52.031,190.213 51.459 C 186.559 47.421,180.149 48.632,179.166 53.544 C 178.357 57.588,172.043 56.654,171.240 52.372 C 170.649 49.221,169.614 48.469,165.431 48.153 L 161.663 47.868 160.659 49.559 M167.407 49.425 C 168.594 49.760,169.442 50.979,170.545 53.938 C 172.066 58.023,180.000 58.706,180.000 54.753 C 180.000 50.225,185.869 48.764,189.213 52.459 C 189.731 53.031,190.458 53.500,190.827 53.500 C 191.330 53.500,191.500 54.436,191.500 57.211 L 191.500 60.922 193.375 61.504 C 194.406 61.824,196.037 62.461,197.000 62.918 C 198.889 63.816,217.234 64.174,220.110 63.369 C 222.874 62.596,224.055 60.626,223.931 57.000 L 223.819 53.750 225.657 53.595 C 227.910 53.405,232.499 55.772,232.499 57.125 C 232.500 58.072,234.219 58.359,234.750 57.500 C 235.412 56.429,241.666 56.914,243.005 58.139 C 243.690 58.766,244.974 59.788,245.858 60.411 C 246.743 61.035,247.755 62.120,248.108 62.823 C 248.528 63.659,249.616 64.416,251.250 65.010 C 252.625 65.510,254.857 66.499,256.210 67.209 C 257.563 67.919,259.181 68.500,259.805 68.500 C 260.430 68.500,261.080 68.725,261.250 69.000 C 261.420 69.275,262.783 69.500,264.280 69.500 C 266.867 69.500,267.000 69.563,267.000 70.783 C 267.000 72.929,267.868 73.879,270.847 74.993 C 272.415 75.580,273.992 76.479,274.350 76.992 C 274.709 77.504,275.841 78.200,276.865 78.538 C 277.888 78.876,279.406 79.567,280.238 80.074 C 281.070 80.581,282.315 80.997,283.006 80.998 C 283.812 80.999,284.440 81.391,284.756 82.089 C 285.061 82.761,286.017 83.384,287.250 83.714 C 288.889 84.153,289.423 84.621,290.205 86.304 C 291.321 88.702,293.740 89.942,295.484 89.009 C 296.416 88.510,296.500 88.610,296.500 90.220 C 296.500 92.070,298.210 93.500,300.421 93.500 C 301.007 93.500,301.507 93.945,301.684 94.625 C 302.068 96.101,304.344 98.441,306.913 100.000 L 308.973 101.250 308.987 105.817 C 308.999 110.131,309.070 110.431,310.250 111.204 C 310.938 111.654,311.500 112.330,311.500 112.706 C 311.500 113.094,312.278 113.535,313.305 113.727 C 314.493 113.950,315.197 114.397,315.364 115.033 C 315.503 115.565,315.796 116.000,316.016 116.000 C 316.235 116.000,316.940 116.445,317.583 116.990 C 318.225 117.534,319.263 118.378,319.890 118.865 C 320.584 119.404,321.155 120.533,321.349 121.750 C 321.555 123.041,322.190 124.239,323.140 125.128 C 324.651 126.542,324.678 126.784,323.740 130.532 C 323.435 131.749,323.579 131.857,326.585 132.677 C 330.532 133.754,333.996 135.131,333.998 135.625 C 333.999 135.831,334.535 136.000,335.189 136.000 C 335.843 136.000,336.647 136.325,336.977 136.722 C 337.306 137.119,338.401 137.513,339.410 137.597 C 340.885 137.720,341.380 138.043,341.947 139.250 C 342.334 140.075,342.954 140.930,343.325 141.150 C 343.696 141.370,344.000 141.853,344.000 142.223 C 344.000 143.320,346.639 145.999,347.736 146.016 C 351.013 146.067,352.106 150.747,349.562 153.833 C 347.801 155.969,347.590 157.420,348.875 158.542 C 349.356 158.962,350.200 159.937,350.750 160.708 C 352.253 162.816,352.997 163.500,353.786 163.500 C 354.236 163.500,354.500 164.022,354.500 164.913 C 354.500 166.401,356.010 168.158,357.750 168.692 C 360.053 169.400,361.762 177.968,360.005 179.994 C 359.458 180.625,358.627 182.010,358.159 183.071 C 357.691 184.132,357.126 185.000,356.904 185.000 C 356.682 185.000,356.500 185.457,356.500 186.016 C 356.500 186.574,356.180 187.154,355.789 187.304 C 355.398 187.454,354.725 188.460,354.293 189.539 C 353.861 190.617,353.338 191.500,353.129 191.501 C 352.921 191.501,352.076 192.081,351.253 192.789 C 349.969 193.893,349.452 194.031,347.628 193.758 C 345.504 193.439,345.500 193.442,345.500 195.026 C 345.500 196.817,346.143 196.805,338.870 195.157 C 334.530 194.174,331.997 194.862,330.872 197.330 C 330.387 198.396,330.320 198.406,329.059 197.597 C 327.298 196.468,327.028 196.267,324.975 194.553 C 322.419 192.420,319.392 191.324,317.124 191.710 C 312.590 192.482,311.976 192.635,311.716 193.055 C 311.565 193.300,310.903 193.500,310.245 193.500 C 309.587 193.500,307.753 193.838,306.169 194.250 C 304.586 194.663,302.445 195.000,301.413 195.000 C 300.341 195.000,298.575 195.536,297.297 196.250 C 296.065 196.937,294.797 197.500,294.479 197.500 C 293.919 197.500,291.151 198.609,289.382 199.542 C 288.904 199.794,288.061 200.000,287.507 200.000 C 286.953 200.000,286.500 200.177,286.500 200.394 C 286.500 200.945,280.441 204.371,278.694 204.807 C 277.900 205.005,276.125 205.690,274.750 206.329 C 273.375 206.967,271.729 207.492,271.092 207.495 C 270.455 207.498,269.196 208.063,268.294 208.750 C 267.393 209.437,266.023 210.000,265.250 210.000 C 263.343 210.000,259.205 214.446,258.766 216.968 C 257.344 225.120,256.452 227.464,254.642 227.803 C 252.803 228.148,250.000 231.647,250.000 233.598 C 250.000 234.100,249.637 234.500,249.182 234.500 C 248.094 234.500,246.000 232.193,246.000 230.994 C 246.000 230.145,245.550 230.025,241.875 229.895 L 237.750 229.750 237.600 228.208 C 237.464 226.823,237.199 226.599,234.975 225.993 C 233.305 225.538,232.500 225.056,232.500 224.510 C 232.500 222.407,227.985 221.609,226.421 223.436 C 225.980 223.950,224.524 224.756,223.185 225.225 C 221.846 225.695,220.075 226.383,219.250 226.755 C 216.194 228.133,215.534 228.154,215.052 226.888 C 214.806 226.240,214.245 225.411,213.806 225.046 C 213.367 224.682,212.772 223.510,212.484 222.442 C 211.350 218.230,202.500 221.239,202.500 225.836 C 202.500 228.745,199.075 230.990,194.625 230.997 C 193.101 231.000,193.000 230.892,193.000 229.250 C 193.000 227.676,192.862 227.499,191.625 227.494 C 190.869 227.491,189.381 227.345,188.318 227.170 L 186.387 226.851 186.698 224.800 C 186.870 223.673,187.143 221.926,187.305 220.919 C 187.811 217.768,181.566 216.096,178.815 218.646 C 177.385 219.972,175.615 220.346,169.520 220.610 L 166.289 220.750 165.514 218.530 C 164.887 216.735,164.440 216.233,163.178 215.906 C 162.217 215.657,161.512 215.098,161.342 214.451 C 161.094 213.502,160.860 213.441,158.909 213.816 C 155.769 214.419,153.145 214.217,152.229 213.301 C 151.789 212.860,151.107 212.500,150.714 212.500 C 150.321 212.500,150.000 212.162,150.000 211.750 C 150.000 210.853,148.444 210.756,147.600 211.600 C 147.133 212.067,146.867 212.067,146.400 211.600 C 145.551 210.751,142.245 210.852,141.500 211.750 C 140.659 212.764,138.048 212.699,136.872 211.635 C 136.263 211.083,134.979 210.737,133.333 210.681 C 125.803 210.424,122.560 209.879,121.434 208.680 C 120.601 207.793,119.789 207.500,118.163 207.500 C 116.169 207.500,116.000 207.399,116.000 206.205 C 116.000 204.487,114.179 203.037,111.995 203.017 C 110.794 203.005,110.043 202.684,109.616 202.000 C 109.272 201.449,108.450 201.000,107.785 201.000 C 106.853 201.000,106.505 200.661,106.251 199.506 C 106.071 198.684,105.715 197.883,105.462 197.726 C 105.208 197.569,105.000 197.017,105.000 196.498 C 105.000 195.728,104.565 195.527,102.625 195.402 L 100.250 195.250 100.000 191.750 C 99.784 188.725,99.597 188.183,98.625 187.756 C 98.006 187.485,97.500 187.003,97.500 186.685 C 97.500 185.900,96.304 185.500,93.954 185.500 C 92.609 185.500,91.720 185.185,91.134 184.500 C 90.663 183.950,89.810 183.500,89.239 183.500 C 87.309 183.500,87.003 182.614,87.331 177.984 C 87.545 174.975,87.465 173.537,87.070 173.293 C 85.649 172.415,86.486 170.664,88.875 169.512 C 90.181 168.882,92.293 167.834,93.568 167.183 C 94.842 166.532,96.223 166.000,96.635 166.000 C 97.048 166.000,97.761 165.426,98.221 164.724 C 98.978 163.569,99.269 163.479,101.279 163.780 L 103.500 164.114 103.492 162.182 C 103.481 159.209,102.445 156.883,100.168 154.717 C 97.289 151.978,96.926 149.868,98.831 146.935 C 100.218 144.799,100.254 144.570,100.418 136.652 L 100.585 128.554 102.259 127.277 C 103.180 126.575,104.059 126.000,104.213 126.000 C 106.893 126.000,110.219 116.121,108.000 114.750 C 106.355 113.733,109.315 108.500,111.536 108.500 C 111.998 108.500,113.585 107.979,115.063 107.343 C 116.541 106.706,118.763 105.901,120.000 105.553 C 124.289 104.348,124.734 103.967,124.903 101.348 C 125.019 99.553,124.807 98.662,124.028 97.672 C 122.859 96.186,122.678 93.319,123.576 90.535 C 125.080 85.879,125.688 84.485,126.559 83.697 C 127.076 83.228,127.500 82.454,127.500 81.976 C 127.500 81.498,127.827 80.981,128.227 80.828 C 128.627 80.674,129.434 79.609,130.020 78.461 C 131.357 75.840,133.152 74.156,135.053 73.738 C 136.289 73.467,136.625 73.048,137.135 71.141 C 137.538 69.632,138.122 68.695,138.871 68.354 C 139.492 68.071,140.000 67.651,140.000 67.420 C 140.000 67.189,140.349 67.000,140.777 67.000 C 141.204 67.000,142.381 66.438,143.393 65.750 C 145.695 64.186,145.710 64.187,148.000 66.000 C 151.446 68.729,154.000 67.242,154.000 62.508 C 154.000 61.258,154.315 60.833,155.750 60.149 C 156.834 59.632,157.500 58.957,157.500 58.374 C 157.500 57.857,158.063 56.696,158.750 55.794 C 159.438 54.893,160.000 53.972,160.000 53.747 C 160.000 50.501,163.655 48.369,167.407 49.425 " stroke="none" fill="#000000" fill-rule="evenodd"></path></g></svg>
