<svg id="svg" xmlns="http://www.w3.org/2000/svg" xmlns:xlink="http://www.w3.org/1999/xlink" width="400" height="300" viewBox="0, 0, 400,300"><g id="svgg"><path id="path0" d="M162.449 10.230 C 161.515 10.906,159.899 11.927,158.858 12.499 C 157.817 13.070,156.618 14.261,156.192 15.144 C 154.318 19.032,152.861 19.125,150.463 15.509 C 149.845 14.577,149.039 14.243,146.713 13.953 C 138.637 12.948,135.000 13.914,135.000 17.063 C 135.000 18.254,134.558 19.023,133.201 20.196 C 128.394 24.349,124.918 28.689,124.305 31.303 C 123.550 34.523,122.880 35.549,121.333 35.858 C 120.366 36.052,118.671 37.320,116.688 39.331 C 113.226 42.845,113.041 42.926,111.750 41.500 C 110.436 40.048,109.404 40.275,108.090 42.302 C 107.013 43.964,106.868 44.035,106.051 43.296 C 105.018 42.361,103.494 42.297,100.015 43.044 C 97.263 43.634,96.599 44.414,95.560 48.277 C 95.260 49.392,94.336 51.064,93.507 51.992 C 92.678 52.920,92.000 53.950,92.000 54.279 C 92.000 54.608,91.662 55.158,91.250 55.500 C 89.871 56.645,90.225 62.881,91.750 64.294 C 92.896 65.356,93.000 65.808,93.000 69.744 L 93.000 74.036 90.625 75.049 C 89.319 75.606,87.597 76.385,86.798 76.781 C 86.000 77.176,84.814 77.500,84.163 77.500 C 82.843 77.500,79.000 79.738,79.000 80.506 C 79.000 80.778,78.600 81.000,78.111 81.000 C 76.396 81.000,75.000 82.456,75.000 84.245 C 75.000 85.493,74.740 86.015,74.000 86.250 C 72.727 86.654,72.559 92.392,73.753 94.682 C 74.548 96.207,74.686 97.434,74.202 98.696 C 73.932 99.398,69.161 102.000,68.142 102.000 C 65.673 102.000,65.165 111.551,67.405 115.855 C 68.911 118.751,68.800 119.327,66.510 120.495 C 63.945 121.804,62.804 123.951,63.220 126.690 C 63.392 127.823,63.661 130.613,63.818 132.889 C 64.090 136.827,64.174 137.064,65.552 137.777 C 67.539 138.804,67.759 144.635,65.875 146.349 C 64.635 147.477,59.243 150.095,56.500 150.900 C 46.030 153.975,46.550 153.484,48.980 158.000 C 53.054 165.569,49.298 172.000,40.804 172.000 L 37.508 172.000 37.827 177.926 C 38.324 187.162,37.764 188.078,33.998 184.191 L 31.760 181.883 28.800 182.192 C 25.809 182.505,21.500 185.863,21.500 187.882 C 21.500 188.864,23.029 191.000,23.732 191.000 C 24.419 191.000,25.884 194.077,26.106 195.988 C 26.217 196.944,26.753 197.411,28.462 198.041 C 29.679 198.489,31.103 199.394,31.628 200.053 C 32.153 200.711,33.636 202.375,34.924 203.750 C 36.212 205.125,37.873 207.150,38.615 208.250 C 42.152 213.494,52.963 220.998,56.984 221.001 C 58.912 221.003,63.453 223.471,66.129 225.972 C 66.991 226.778,69.171 228.151,70.973 229.024 C 76.159 231.537,81.236 235.958,81.837 238.485 C 82.003 239.181,82.299 239.975,82.496 240.250 C 82.693 240.525,83.490 242.393,84.266 244.400 C 85.043 246.408,85.863 248.165,86.089 248.305 C 86.315 248.445,86.503 250.852,86.506 253.655 C 86.509 256.553,86.830 259.936,87.250 261.500 C 87.656 263.012,87.991 264.988,87.994 265.891 C 88.002 268.081,89.003 268.378,92.173 267.130 C 93.590 266.573,95.425 265.871,96.250 265.571 C 99.010 264.566,104.193 264.008,110.785 264.004 L 117.320 264.000 119.035 265.556 L 120.750 267.112 127.011 266.848 C 135.975 266.469,138.116 265.422,139.993 260.500 C 142.352 254.313,154.682 251.182,168.557 253.247 C 170.389 253.519,171.290 253.373,172.936 252.533 C 177.267 250.323,182.464 249.802,200.564 249.761 C 213.634 249.732,217.553 249.578,218.166 249.070 C 218.652 248.666,221.402 248.253,225.352 247.989 C 233.801 247.427,238.159 246.693,241.500 245.273 C 247.836 242.579,249.514 242.000,250.979 242.000 C 251.828 242.000,254.223 241.286,256.301 240.414 L 260.080 238.828 259.860 236.039 C 259.739 234.505,259.471 232.746,259.264 232.131 C 258.977 231.280,259.110 230.931,259.818 230.675 C 265.825 228.499,264.651 222.500,258.218 222.500 L 256.403 222.500 256.668 220.125 C 256.814 218.819,257.146 215.838,257.405 213.500 C 257.993 208.210,258.667 206.914,262.663 203.384 C 269.781 197.095,273.484 195.739,282.487 196.123 C 287.315 196.328,287.940 196.246,290.487 195.062 C 292.848 193.965,294.233 193.729,300.000 193.444 C 309.879 192.956,313.040 192.508,313.333 191.552 C 313.793 190.049,315.164 187.753,316.583 186.108 C 317.362 185.204,318.000 183.931,318.000 183.277 C 318.000 179.825,327.294 177.075,331.540 179.271 C 334.005 180.545,339.190 183.998,339.575 184.621 C 340.024 185.348,341.870 184.470,344.801 182.134 C 347.519 179.969,353.500 180.912,353.500 183.506 C 353.500 183.778,354.006 183.997,354.625 183.994 C 355.693 183.988,358.000 181.263,358.000 180.007 C 358.000 179.064,358.790 179.493,360.750 181.500 C 362.424 183.214,363.007 183.500,364.831 183.500 C 367.849 183.500,368.845 182.360,372.039 175.250 C 373.616 171.741,374.314 162.968,373.285 159.594 C 372.893 158.305,372.441 156.644,372.283 155.902 C 372.124 155.161,371.096 153.516,369.997 152.247 C 368.547 150.571,368.000 149.492,368.000 148.307 C 368.000 146.652,366.681 144.977,364.875 144.340 C 364.394 144.170,364.000 143.682,364.000 143.255 C 364.000 142.827,363.073 141.472,361.940 140.242 L 359.879 138.007 360.758 135.629 C 362.957 129.673,361.376 122.776,357.502 121.426 C 356.712 121.150,355.712 120.384,355.278 119.723 C 354.845 119.062,353.839 118.184,353.044 117.773 C 352.248 117.361,351.073 116.175,350.432 115.137 C 348.490 111.989,344.568 108.500,342.971 108.500 C 342.201 108.500,341.234 108.162,340.821 107.750 C 340.409 107.338,339.212 106.990,338.161 106.979 C 334.050 106.933,330.734 105.780,330.904 104.454 C 330.989 103.792,331.181 100.621,331.331 97.408 L 331.603 91.566 329.427 90.994 C 324.348 89.657,320.500 87.054,320.500 84.956 C 320.500 84.504,320.050 83.563,319.500 82.864 C 318.950 82.164,318.500 81.243,318.500 80.816 C 318.500 80.388,318.070 79.636,317.544 79.144 C 317.018 78.653,316.206 77.294,315.740 76.125 C 314.788 73.741,312.671 73.210,310.303 74.761 C 308.387 76.017,307.352 75.233,307.718 72.804 C 307.889 71.674,308.150 69.063,308.299 67.000 L 308.569 63.250 307.036 62.250 C 306.193 61.700,305.502 61.081,305.501 60.875 C 305.499 60.314,303.107 60.423,302.750 61.000 C 302.580 61.275,301.806 61.500,301.029 61.500 C 299.303 61.500,299.016 60.668,299.007 55.625 C 298.999 51.371,297.964 50.791,295.274 53.531 C 293.487 55.352,292.416 55.250,291.749 53.195 C 291.095 51.178,290.086 50.000,289.014 50.000 C 288.539 50.000,287.194 49.307,286.025 48.460 C 284.856 47.614,283.078 46.795,282.075 46.642 C 278.896 46.156,273.009 42.803,273.003 41.475 C 272.997 40.002,271.834 39.500,268.424 39.500 L 265.048 39.500 263.479 37.220 L 261.910 34.939 258.042 35.277 L 254.174 35.614 252.553 33.567 C 251.378 32.083,250.357 31.378,248.841 31.002 C 247.691 30.717,246.075 30.149,245.250 29.739 C 244.425 29.330,242.738 28.713,241.500 28.368 C 239.469 27.803,239.110 27.463,237.813 24.871 C 236.488 22.225,236.243 22.000,234.683 22.000 C 233.560 22.000,232.697 21.641,232.120 20.933 C 231.642 20.346,230.783 19.301,230.212 18.609 L 229.175 17.353 225.047 18.023 C 221.854 18.541,220.729 18.559,220.084 18.102 C 214.465 14.118,208.649 15.236,205.844 20.839 C 203.771 24.980,203.200 25.500,200.726 25.500 C 198.205 25.500,198.000 25.144,198.000 20.767 C 198.000 17.097,197.884 17.018,192.462 17.007 C 189.636 17.001,189.015 16.830,188.038 15.790 C 185.177 12.746,177.930 11.300,171.306 12.453 C 167.474 13.121,166.426 12.774,165.423 10.506 C 164.618 8.688,164.583 8.685,162.449 10.230 M164.903 12.236 C 165.648 13.872,167.313 14.222,171.159 13.553 C 177.696 12.414,183.002 13.372,186.435 16.310 C 188.270 17.881,188.655 18.000,191.914 18.000 C 196.936 18.000,197.000 18.048,197.000 21.763 C 197.000 26.384,197.091 26.501,200.678 26.497 C 204.073 26.493,204.377 26.237,207.105 21.071 C 208.088 19.210,208.709 18.711,211.372 17.646 L 214.489 16.398 217.237 17.949 C 220.177 19.608,222.554 19.884,226.250 18.995 C 228.216 18.522,228.283 18.552,230.177 20.757 C 231.749 22.587,232.414 23.000,233.784 23.000 C 235.333 23.000,235.571 23.222,236.857 25.875 C 238.104 28.449,238.464 28.802,240.295 29.250 C 241.420 29.525,243.108 30.140,244.045 30.617 C 244.983 31.094,246.691 31.717,247.841 32.002 C 249.355 32.377,250.377 33.083,251.546 34.558 L 253.159 36.595 257.184 36.422 L 261.209 36.250 262.638 38.375 L 264.066 40.500 267.433 40.500 C 270.913 40.500,272.000 41.000,272.000 42.600 C 272.000 43.095,272.310 43.500,272.689 43.500 C 273.068 43.500,273.666 43.848,274.020 44.274 C 274.854 45.279,279.264 47.305,281.500 47.710 C 282.462 47.885,284.134 48.696,285.214 49.514 C 286.294 50.331,287.561 51.000,288.028 51.000 C 289.089 51.000,290.098 52.187,290.749 54.201 C 291.472 56.436,293.420 56.544,296.010 54.492 L 298.000 52.916 298.000 56.741 C 298.000 61.718,298.430 62.500,301.168 62.500 C 302.340 62.500,303.514 62.290,303.775 62.033 C 304.071 61.743,304.884 62.136,305.932 63.077 C 307.788 64.744,307.724 63.865,306.670 73.188 C 306.305 76.419,308.669 77.741,311.279 75.766 C 312.943 74.508,313.835 74.858,314.740 77.125 C 315.206 78.294,316.018 79.653,316.544 80.144 C 317.070 80.636,317.500 81.467,317.500 81.990 C 317.500 82.513,317.737 83.087,318.027 83.266 C 318.316 83.445,319.079 84.781,319.722 86.234 C 320.960 89.033,323.403 90.628,328.601 92.027 L 330.614 92.569 330.285 97.660 C 330.104 100.459,329.910 103.639,329.853 104.725 L 329.750 106.701 332.750 107.329 C 334.400 107.674,336.566 107.966,337.564 107.978 C 338.561 107.990,339.658 108.338,340.000 108.750 C 340.342 109.163,341.232 109.500,341.976 109.500 C 343.524 109.500,347.783 113.210,349.294 115.875 C 349.801 116.769,350.361 117.500,350.538 117.500 C 350.716 117.500,351.961 118.534,353.306 119.797 C 354.650 121.061,356.248 122.289,356.856 122.528 C 360.094 123.796,361.809 129.907,360.064 133.961 C 358.545 137.494,358.660 139.219,360.508 140.585 C 361.337 141.198,362.393 142.555,362.854 143.600 C 363.315 144.645,363.944 145.500,364.252 145.500 C 365.500 145.500,367.000 147.558,367.000 149.268 C 367.000 150.603,367.460 151.483,369.015 153.124 C 370.123 154.293,371.144 155.813,371.283 156.500 C 371.422 157.188,371.887 158.964,372.317 160.448 C 373.260 163.707,372.613 170.442,370.991 174.250 C 370.756 174.800,370.115 176.314,369.565 177.615 C 367.379 182.785,364.762 183.743,361.689 180.500 C 359.859 178.569,357.000 177.670,357.000 179.027 C 357.000 179.316,356.437 180.381,355.750 181.393 C 355.062 182.404,354.500 182.985,354.500 182.683 C 354.500 179.614,346.940 178.610,343.717 181.250 C 340.989 183.485,341.155 183.507,335.650 180.177 L 330.983 177.353 326.481 177.645 C 320.191 178.052,317.520 179.552,316.779 183.090 C 316.625 183.827,316.218 184.727,315.874 185.090 C 314.412 186.636,312.601 189.355,312.427 190.266 C 312.199 191.464,309.935 191.848,299.750 192.416 C 295.309 192.664,292.110 193.089,291.000 193.579 C 290.038 194.005,288.800 194.532,288.250 194.751 C 287.700 194.970,284.887 195.099,282.000 195.037 C 272.729 194.837,269.781 195.837,262.683 201.589 C 257.273 205.973,256.720 207.436,255.667 220.125 L 255.387 223.500 257.210 223.500 C 263.232 223.500,264.324 227.681,258.823 229.673 C 258.066 229.947,257.949 230.353,258.186 231.879 C 258.346 232.908,258.615 234.677,258.784 235.809 L 259.092 237.868 255.331 239.434 C 253.262 240.295,251.031 241.000,250.372 241.000 C 248.991 241.000,242.696 243.124,239.996 244.502 C 237.914 245.564,228.577 247.000,223.750 247.000 C 221.982 247.000,219.458 247.369,218.142 247.820 C 216.140 248.506,213.019 248.658,199.000 248.748 C 181.003 248.864,176.189 249.363,171.883 251.560 C 169.989 252.526,169.521 252.579,167.554 252.053 C 163.855 251.064,152.181 251.803,146.750 253.370 C 141.742 254.816,141.217 255.255,139.025 259.823 C 137.215 263.595,135.601 264.800,131.457 265.472 C 125.264 266.477,121.884 266.196,119.750 264.500 L 117.862 263.000 110.556 263.017 C 102.356 263.037,97.149 263.794,92.613 265.627 C 89.179 267.014,89.002 266.973,88.994 264.792 C 88.991 263.944,88.656 262.012,88.250 260.500 C 87.842 258.981,87.509 255.582,87.506 252.905 C 87.503 250.239,87.314 247.944,87.087 247.804 C 86.860 247.664,85.691 245.007,84.490 241.899 C 81.534 234.253,79.003 231.483,71.796 228.006 C 70.121 227.197,68.037 225.859,67.166 225.031 C 64.895 222.873,59.435 220.000,57.605 220.000 C 56.293 220.000,53.428 218.683,50.000 216.504 C 49.587 216.242,48.470 215.635,47.516 215.155 C 45.564 214.173,41.443 210.142,39.690 207.500 C 39.052 206.537,37.173 204.312,35.515 202.555 C 33.857 200.797,32.500 199.153,32.500 198.902 C 32.500 198.651,31.262 197.898,29.750 197.229 C 27.442 196.208,27.000 195.805,27.000 194.723 C 27.000 192.977,26.204 191.523,24.325 189.839 C 23.294 188.916,22.966 188.340,23.375 188.173 C 23.719 188.032,24.000 187.628,24.000 187.275 C 24.000 186.303,28.503 183.000,29.827 183.000 C 30.559 183.000,31.776 183.835,33.108 185.250 C 37.732 190.164,39.306 188.319,38.900 178.463 L 38.675 173.000 41.990 173.000 C 50.405 173.000,54.271 165.511,50.020 157.446 L 48.541 154.642 49.646 154.144 C 50.253 153.870,51.987 153.360,53.500 153.010 C 58.055 151.957,64.897 149.040,66.875 147.310 C 68.820 145.608,68.564 137.833,66.534 136.935 C 65.121 136.309,65.059 136.140,64.836 132.268 C 64.708 130.058,64.444 127.531,64.249 126.651 C 63.799 124.625,65.334 122.292,67.792 121.265 C 69.877 120.393,70.068 118.511,68.426 115.000 C 66.267 110.384,66.714 103.000,69.153 103.000 C 73.519 103.000,76.722 97.957,74.753 94.182 C 73.586 91.945,73.743 87.474,75.000 87.145 C 75.774 86.942,76.000 86.463,76.000 85.022 C 76.000 83.187,77.238 82.000,79.153 82.000 C 79.487 82.000,80.026 81.573,80.353 81.050 C 81.034 79.959,83.726 78.500,85.057 78.500 C 85.553 78.500,87.712 77.727,89.855 76.783 L 93.750 75.066 93.892 69.775 C 94.029 64.669,93.990 64.443,92.767 63.310 C 90.417 61.132,91.300 56.425,94.759 52.693 C 95.348 52.057,96.249 50.156,96.760 48.468 C 97.806 45.013,98.653 44.263,102.048 43.785 C 103.799 43.539,104.498 43.645,104.984 44.231 C 106.031 45.493,107.821 45.156,109.020 43.472 C 110.018 42.070,110.180 42.008,110.969 42.722 C 112.993 44.554,114.797 43.735,118.000 39.530 C 118.598 38.745,121.471 37.000,122.166 37.000 C 123.255 37.000,124.831 34.806,125.216 32.756 C 125.683 30.265,129.057 25.417,131.862 23.207 C 135.242 20.543,136.000 19.585,136.000 17.979 C 136.000 13.363,147.729 13.166,150.426 17.737 C 152.138 20.639,155.268 19.763,157.373 15.794 C 157.904 14.794,162.852 11.140,163.795 11.051 C 164.094 11.023,164.593 11.556,164.903 12.236 " stroke="none" fill="#000000" fill-rule="evenodd"></path></g></svg>
