<svg id="svg" xmlns="http://www.w3.org/2000/svg" xmlns:xlink="http://www.w3.org/1999/xlink" width="400" height="300" viewBox="0, 0, 400,300"><g id="svgg"><path id="path0" d="M173.927 36.960 C 167.579 37.306,167.007 37.669,165.744 42.149 C 164.989 44.828,164.794 45.123,164.310 44.313 C 161.577 39.742,158.519 38.411,155.750 40.589 C 154.858 41.291,153.420 41.757,151.712 41.899 C 149.061 42.119,149.058 42.121,147.736 44.823 C 147.008 46.312,145.606 48.138,144.615 48.888 C 140.579 51.944,140.215 52.507,139.534 56.750 C 138.603 62.547,138.000 63.500,135.270 63.500 C 131.510 63.500,129.615 64.608,127.359 68.125 C 126.264 69.832,125.508 69.855,123.979 68.227 C 122.143 66.274,120.436 66.713,119.515 69.375 C 118.609 71.997,118.245 72.010,115.810 69.500 C 112.930 66.531,112.703 66.617,109.163 72.000 C 108.168 73.513,106.262 75.976,104.927 77.475 C 101.831 80.950,101.818 81.458,104.535 92.013 C 104.929 93.544,104.977 95.323,104.684 97.513 L 104.250 100.750 101.096 101.001 C 98.085 101.241,97.834 101.366,95.568 103.751 C 94.262 105.125,91.856 107.281,90.222 108.541 C 85.943 111.839,84.120 115.597,83.423 122.554 C 82.905 127.732,82.578 128.478,80.826 128.492 C 77.365 128.521,75.770 130.839,77.253 133.682 C 77.783 134.699,77.994 136.656,77.981 140.432 L 77.961 145.750 76.356 146.760 C 73.389 148.627,70.738 159.500,73.250 159.500 C 73.662 159.500,74.000 159.682,74.000 159.904 C 74.000 160.126,74.903 160.706,76.008 161.193 C 78.973 162.502,79.636 164.173,79.898 171.000 L 80.118 176.750 78.902 175.625 C 75.557 172.531,67.544 174.746,65.518 179.325 C 64.473 181.688,63.747 182.064,63.250 180.500 C 62.552 178.301,55.854 181.713,55.593 184.401 C 55.438 185.994,58.980 188.478,61.432 188.495 C 62.484 188.503,61.677 192.868,60.207 195.125 C 59.091 196.838,58.789 197.000,56.710 197.000 C 52.911 197.000,48.500 201.708,48.500 205.762 C 48.500 210.411,47.238 212.076,44.981 210.407 C 42.338 208.453,37.652 208.476,36.040 210.452 C 34.766 212.012,34.729 212.022,33.556 211.143 C 30.656 208.970,28.104 206.400,27.225 204.768 C 25.777 202.080,24.289 203.081,22.463 207.968 C 21.891 209.498,21.088 211.122,20.679 211.576 C 19.518 212.863,19.960 216.209,21.317 216.402 C 21.903 216.486,22.974 217.217,23.695 218.027 C 24.417 218.837,25.432 219.500,25.951 219.500 C 27.243 219.500,29.528 221.749,31.286 224.750 L 32.750 227.250 32.854 236.907 C 32.955 246.244,33.002 246.655,34.288 249.282 C 35.569 251.902,36.500 252.753,36.500 251.306 C 36.500 250.902,37.268 250.467,38.334 250.267 C 40.731 249.818,43.154 247.929,44.686 245.315 C 46.221 242.695,48.143 241.536,49.524 242.399 C 50.053 242.730,51.614 243.000,52.993 243.000 L 55.500 243.000 55.500 240.519 C 55.500 238.256,55.303 237.836,53.255 235.729 C 52.020 234.458,50.543 232.762,49.971 231.959 L 48.932 230.500 54.216 230.500 C 60.748 230.500,61.026 229.148,55.664 223.470 L 53.983 221.690 55.116 220.652 C 55.740 220.080,57.914 218.890,59.948 218.006 C 61.982 217.123,65.080 215.522,66.832 214.450 C 70.840 211.997,71.030 212.008,73.342 214.830 C 75.753 217.774,78.338 218.975,82.293 218.989 L 85.336 219.000 86.168 216.008 C 86.626 214.362,87.000 212.553,87.000 211.988 C 87.000 209.013,89.960 205.493,94.167 203.466 C 97.556 201.833,98.500 200.895,98.500 199.158 C 98.500 197.802,101.209 195.676,105.562 193.617 C 108.995 191.992,109.119 191.418,106.553 189.048 C 105.323 187.913,104.400 186.488,104.049 185.183 C 103.743 184.047,103.126 182.812,102.678 182.441 C 100.070 180.276,98.929 176.567,100.002 173.745 C 100.652 172.035,104.475 167.500,105.267 167.500 C 105.603 167.500,106.158 167.162,106.500 166.750 C 106.842 166.338,107.642 166.000,108.278 166.000 C 109.041 166.000,109.549 165.618,109.774 164.875 C 110.553 162.313,112.459 160.501,114.400 160.478 C 115.447 160.466,117.119 159.927,118.250 159.238 C 122.277 156.785,126.876 154.564,129.530 153.789 C 131.592 153.187,132.833 152.392,134.660 150.498 C 135.985 149.124,137.279 148.000,137.535 148.000 C 138.332 148.000,138.046 145.190,137.000 142.750 C 135.260 138.690,135.568 137.182,138.087 137.423 C 140.865 137.687,141.500 136.777,141.500 132.529 C 141.500 130.726,141.838 127.486,142.250 125.331 C 142.664 123.167,143.000 118.651,143.000 115.247 C 143.000 108.006,143.133 107.500,145.036 107.500 C 145.969 107.500,146.657 107.141,147.018 106.466 C 147.535 105.500,147.650 105.483,148.768 106.216 C 149.456 106.666,151.039 107.000,152.488 107.000 L 155.011 107.000 156.310 104.375 C 157.460 102.052,164.269 96.000,165.734 96.000 C 166.313 96.000,171.577 92.468,172.670 91.346 C 173.264 90.735,174.425 89.912,175.250 89.517 C 176.075 89.121,177.313 88.301,178.000 87.694 C 181.545 84.562,188.838 82.952,191.974 84.607 C 193.482 85.404,196.881 91.123,197.259 93.500 C 197.614 95.735,198.152 97.571,199.455 100.993 C 200.124 102.749,200.502 104.908,200.505 106.993 C 200.515 113.781,204.947 118.000,212.067 118.000 C 216.817 118.000,220.247 121.897,219.704 126.680 C 219.126 131.779,221.157 137.894,224.637 141.529 C 226.530 143.505,226.958 144.619,227.320 148.517 C 227.641 151.970,227.760 152.237,230.026 154.576 C 231.330 155.921,232.543 157.603,232.721 158.313 C 233.871 162.893,238.490 164.126,244.300 161.403 C 246.149 160.537,247.684 161.110,248.578 163.000 C 249.033 163.963,250.608 167.252,252.078 170.310 L 254.750 175.871 260.250 176.125 C 264.760 176.334,266.358 176.631,269.125 177.778 L 272.500 179.177 272.500 183.912 C 272.500 187.220,272.217 189.492,271.560 191.449 C 271.043 192.989,270.152 195.759,269.581 197.602 C 268.189 202.090,266.368 204.905,264.625 205.263 C 263.869 205.418,262.436 205.760,261.442 206.023 C 258.736 206.737,252.588 206.599,249.331 205.750 C 247.747 205.337,244.775 205.000,242.726 205.000 L 239.000 205.000 239.000 207.024 C 239.000 208.739,238.670 209.382,236.831 211.247 C 230.785 217.380,229.000 221.537,229.000 229.481 C 229.000 234.348,229.254 234.804,232.500 235.766 C 233.188 235.970,234.386 236.669,235.163 237.318 C 235.941 237.968,236.845 238.500,237.172 238.500 C 237.500 238.500,238.576 239.049,239.564 239.720 C 240.551 240.391,242.656 241.378,244.240 241.913 C 245.824 242.448,247.262 243.095,247.435 243.352 C 248.486 244.910,252.277 245.597,258.000 245.267 C 265.366 244.841,265.315 244.859,265.688 242.525 C 265.859 241.454,266.733 239.604,267.630 238.414 C 271.211 233.660,272.096 231.000,270.096 231.000 C 267.412 231.000,266.786 228.170,269.011 226.097 C 271.312 223.953,284.819 220.515,291.250 220.437 C 298.375 220.350,298.703 220.215,299.000 217.248 C 299.245 214.798,302.228 213.433,302.904 215.461 C 303.512 217.286,308.461 215.685,311.688 212.619 C 314.647 209.809,315.467 209.500,319.977 209.500 C 323.360 209.500,324.324 209.308,325.885 208.324 C 327.511 207.298,332.981 205.883,339.647 204.765 C 342.033 204.364,346.424 206.242,347.807 208.253 C 350.755 212.540,353.093 213.395,356.000 211.250 C 357.471 210.165,358.216 210.000,361.647 210.000 C 365.393 210.000,365.672 209.922,367.000 208.500 C 368.182 207.235,368.781 206.999,370.826 206.993 C 374.255 206.984,375.209 206.627,376.174 204.994 C 376.640 204.206,378.286 202.365,379.832 200.905 C 381.379 199.445,383.535 196.900,384.625 195.250 L 386.605 192.250 386.311 187.179 C 385.972 181.355,385.659 180.337,383.017 176.466 C 381.956 174.911,380.488 172.090,379.755 170.195 C 379.022 168.300,377.668 165.175,376.747 163.250 C 375.827 161.325,374.826 158.512,374.525 157.000 C 374.035 154.543,373.763 154.127,371.968 153.098 C 370.856 152.461,368.955 150.563,367.711 148.848 C 364.275 144.112,362.971 142.513,360.209 139.650 L 357.667 137.016 352.500 136.677 C 347.591 136.356,347.213 136.249,344.917 134.544 C 342.185 132.515,342.277 132.968,342.490 122.631 L 342.595 117.512 341.223 116.990 C 340.468 116.703,338.067 114.672,335.886 112.476 C 333.705 110.281,331.287 108.157,330.511 107.756 C 328.720 106.830,325.500 101.178,325.500 98.962 C 325.500 98.067,324.712 95.676,323.750 93.649 C 322.788 91.621,321.999 89.464,321.998 88.856 C 321.993 85.965,320.257 84.500,316.838 84.500 C 313.268 84.500,312.500 83.743,312.500 80.226 C 312.500 79.082,312.265 78.500,311.802 78.500 C 311.049 78.500,308.000 81.722,308.000 82.517 C 308.000 83.546,306.490 82.931,305.810 81.625 C 304.827 79.737,300.525 75.821,298.727 75.177 C 293.343 73.248,291.878 72.849,288.750 72.459 C 282.286 71.651,281.689 71.423,280.032 69.129 C 279.189 67.963,278.500 66.382,278.500 65.616 C 278.500 63.662,277.200 62.000,275.672 62.000 C 274.900 62.000,273.842 61.401,272.974 60.472 C 271.297 58.677,268.702 58.088,266.495 59.002 C 265.168 59.552,264.844 59.514,263.946 58.701 C 263.352 58.163,261.842 57.660,260.373 57.510 C 258.077 57.275,257.678 57.043,256.289 55.127 C 255.443 53.960,253.800 52.332,252.640 51.510 C 251.239 50.518,250.048 49.046,249.098 47.133 L 247.666 44.250 244.749 44.314 C 242.112 44.371,241.716 44.239,240.622 42.939 C 238.974 40.981,238.352 41.120,237.000 43.750 C 235.583 46.506,235.291 46.530,234.000 44.000 C 232.852 41.749,231.915 41.519,229.186 42.814 C 227.601 43.566,227.402 43.566,226.571 42.814 C 225.207 41.580,223.663 41.781,223.297 43.241 C 223.126 43.923,222.369 44.800,221.617 45.190 C 220.864 45.579,219.836 46.353,219.333 46.909 C 218.273 48.079,216.603 47.718,213.578 45.665 C 211.703 44.393,207.751 44.063,205.948 45.028 C 204.480 45.813,203.040 45.135,200.433 42.431 C 198.299 40.216,197.886 40.000,195.795 40.000 L 193.500 40.000 193.500 45.025 C 193.500 50.406,193.042 51.932,190.860 53.818 C 188.751 55.640,186.774 52.099,185.936 45.000 C 185.208 38.828,183.732 36.421,180.779 36.585 C 179.938 36.632,176.855 36.801,173.927 36.960 M182.786 38.836 C 184.169 40.328,184.253 40.615,184.950 46.250 C 185.984 54.604,188.556 57.720,191.864 54.625 C 194.188 52.451,194.500 51.433,194.500 46.033 L 194.500 41.000 195.830 41.000 C 196.745 41.000,197.796 41.669,199.205 43.147 C 202.180 46.269,203.532 46.833,206.281 46.097 C 209.567 45.219,210.968 45.357,212.780 46.739 C 213.674 47.421,215.415 48.249,216.649 48.579 L 218.893 49.179 221.322 47.046 C 222.657 45.872,223.991 44.467,224.286 43.922 C 224.766 43.034,224.888 43.013,225.472 43.716 C 226.287 44.698,227.866 44.714,230.140 43.764 C 232.012 42.982,232.648 43.409,233.647 46.125 C 234.254 47.775,236.700 47.240,237.649 45.250 C 238.616 43.223,239.000 43.118,240.280 44.533 C 241.053 45.387,241.697 45.539,243.983 45.408 L 246.750 45.250 248.118 48.121 C 249.122 50.227,250.159 51.475,252.011 52.806 C 253.400 53.804,254.868 55.261,255.273 56.045 C 256.184 57.806,257.422 58.500,259.650 58.500 C 260.637 58.500,261.934 58.947,262.704 59.554 C 263.735 60.364,264.414 60.527,265.647 60.259 C 269.078 59.514,270.366 59.751,271.917 61.411 C 272.832 62.390,273.889 63.000,274.672 63.000 C 276.209 63.000,277.500 64.665,277.500 66.645 C 277.500 67.427,278.110 68.895,278.855 69.908 C 279.600 70.921,280.252 71.821,280.305 71.909 C 280.536 72.293,286.435 73.466,288.217 73.482 C 289.298 73.492,291.436 73.928,292.967 74.450 C 294.498 74.973,296.364 75.538,297.114 75.707 C 298.517 76.022,305.000 81.711,305.000 82.627 C 305.000 84.587,308.245 84.943,309.204 83.089 C 310.397 80.781,311.500 80.098,311.500 81.665 C 311.500 84.791,312.351 85.500,316.106 85.500 L 319.551 85.500 320.276 87.234 C 320.674 88.188,321.000 89.431,321.000 89.996 C 321.000 90.562,321.788 92.589,322.750 94.500 C 323.739 96.463,324.500 98.724,324.500 99.697 C 324.500 102.445,327.452 107.360,330.087 109.000 C 331.309 109.761,333.268 111.529,334.441 112.929 C 335.613 114.330,337.667 116.184,339.004 117.051 L 341.435 118.626 341.378 126.156 C 341.327 132.965,341.410 133.737,342.238 134.218 C 342.742 134.511,343.851 135.336,344.702 136.052 C 346.086 137.216,346.826 137.390,351.692 137.697 L 357.133 138.040 359.442 140.592 C 362.969 144.491,363.981 145.755,366.490 149.393 C 367.974 151.545,369.544 153.160,370.864 153.892 C 372.679 154.897,372.990 155.338,373.474 157.596 C 373.776 159.006,374.497 161.192,375.077 162.455 C 375.656 163.717,377.182 167.225,378.468 170.250 C 379.754 173.275,381.675 176.983,382.738 178.491 C 387.510 185.261,386.289 192.671,379.242 199.705 C 377.289 201.655,375.323 203.788,374.874 204.446 C 374.228 205.391,373.500 205.687,371.403 205.857 C 368.089 206.127,366.108 206.864,365.463 208.069 C 365.040 208.860,364.353 209.000,360.905 209.000 C 357.295 209.000,356.654 209.145,355.127 210.310 C 353.032 211.908,351.536 211.466,349.950 208.778 C 348.637 206.552,344.973 204.131,342.324 203.739 C 339.568 203.331,328.124 205.696,325.116 207.296 C 323.254 208.286,322.122 208.500,318.758 208.500 C 314.758 208.500,310.000 210.704,310.000 212.557 C 310.000 214.094,304.808 215.390,303.279 214.234 C 300.522 212.148,298.000 213.489,298.000 217.041 C 298.000 218.118,297.831 219.022,297.625 219.050 C 297.419 219.077,294.438 219.269,291.000 219.475 C 284.454 219.868,280.272 220.553,276.500 221.850 C 275.262 222.275,273.262 222.866,272.054 223.162 C 266.893 224.428,264.276 230.522,268.375 231.728 C 269.269 231.992,270.000 232.407,270.000 232.651 C 270.000 233.207,267.928 236.190,267.383 236.420 C 266.735 236.693,265.297 239.581,264.729 241.750 L 264.205 243.750 258.977 244.167 C 253.538 244.600,248.746 243.724,248.157 242.188 C 248.028 241.851,247.091 241.434,246.076 241.263 C 245.061 241.091,243.335 240.412,242.240 239.753 C 241.146 239.094,239.466 238.194,238.507 237.754 C 237.548 237.313,236.311 236.539,235.757 236.034 C 235.203 235.528,234.188 234.953,233.500 234.755 C 227.010 232.889,228.988 221.234,237.228 212.795 C 239.645 210.319,240.000 209.702,240.000 207.978 L 240.000 206.000 242.726 206.000 C 244.225 206.000,246.747 206.337,248.331 206.750 C 251.568 207.593,258.978 207.743,262.154 207.029 C 263.307 206.770,264.847 206.434,265.576 206.282 C 267.152 205.954,269.316 202.362,270.716 197.750 C 271.217 196.100,272.048 193.549,272.563 192.081 C 273.265 190.079,273.500 188.001,273.500 183.778 L 273.500 178.145 269.875 176.780 C 267.078 175.727,265.027 175.352,260.898 175.138 L 255.546 174.861 253.066 169.805 C 251.702 167.025,250.289 163.886,249.926 162.830 C 248.844 159.679,247.464 159.440,240.554 161.205 C 236.548 162.228,235.519 161.703,233.766 157.739 C 233.105 156.244,231.682 154.173,230.604 153.136 C 228.814 151.414,228.614 150.955,228.307 147.869 C 227.873 143.500,227.525 142.661,225.116 140.179 C 222.100 137.072,220.838 133.308,220.878 127.543 L 220.911 122.836 218.945 120.175 C 216.838 117.323,216.499 117.173,211.451 116.843 C 205.046 116.424,201.500 112.638,201.500 106.217 C 201.500 103.320,201.203 101.907,200.000 99.080 C 199.175 97.141,198.496 94.811,198.491 93.902 C 198.478 91.704,194.579 84.446,192.974 83.634 C 189.715 81.985,182.269 83.090,178.801 85.737 C 177.578 86.671,175.829 87.821,174.914 88.294 C 173.999 88.767,172.238 89.990,171.000 91.012 C 169.762 92.034,167.625 93.510,166.250 94.291 C 160.477 97.572,156.398 101.039,155.326 103.575 C 154.136 106.393,152.366 106.818,149.387 105.002 C 147.260 103.705,146.779 103.741,146.091 105.250 C 145.674 106.166,145.133 106.500,144.069 106.500 C 142.186 106.500,142.015 107.184,142.007 114.750 C 142.003 118.050,141.662 122.514,141.250 124.669 C 140.837 126.824,140.497 129.862,140.493 131.419 C 140.481 136.295,140.268 136.631,137.432 136.241 L 135.000 135.906 135.000 138.568 C 135.000 140.142,135.433 142.275,136.059 143.785 L 137.118 146.340 134.342 149.093 C 132.084 151.333,130.839 152.103,127.659 153.225 C 125.509 153.982,122.483 155.367,120.935 156.301 C 119.386 157.236,117.895 158.000,117.621 158.000 C 117.347 158.000,116.842 158.337,116.500 158.750 C 116.127 159.200,115.033 159.500,113.766 159.500 C 111.466 159.500,110.845 159.997,109.237 163.125 C 108.695 164.179,107.900 165.000,107.422 165.000 C 106.954 165.000,106.234 165.338,105.821 165.750 C 105.409 166.162,104.865 166.500,104.614 166.500 C 103.795 166.500,99.902 170.707,99.191 172.359 C 97.682 175.872,98.554 179.630,101.803 183.613 C 102.415 184.363,103.068 185.670,103.254 186.518 C 103.440 187.365,104.326 188.793,105.223 189.689 L 106.853 191.320 104.142 192.739 C 99.926 194.947,97.500 196.881,97.500 198.036 C 97.500 199.928,96.485 200.997,93.330 202.428 C 91.432 203.288,89.597 204.578,88.670 205.702 C 87.121 207.581,86.740 208.571,85.230 214.625 C 84.391 217.994,84.386 218.000,82.627 218.000 C 78.686 218.000,76.382 216.735,73.587 213.038 C 71.952 210.876,69.962 210.978,65.926 213.429 C 61.695 215.999,57.701 218.000,56.805 218.000 C 55.520 218.000,53.000 220.513,53.000 221.794 C 53.000 222.458,53.187 223.000,53.416 223.000 C 53.903 223.000,58.000 228.419,58.000 229.063 C 58.000 229.303,55.750 229.500,53.000 229.500 C 48.542 229.500,48.000 229.596,48.000 230.389 C 48.000 231.646,50.097 234.603,52.875 237.264 C 54.062 238.402,54.500 239.263,54.500 240.463 C 54.500 242.277,54.809 242.236,48.844 241.211 C 46.747 240.850,45.088 241.938,43.718 244.571 C 42.406 247.091,36.500 250.686,36.500 248.965 C 36.500 248.660,35.994 248.001,35.375 247.501 C 34.291 246.624,34.241 246.217,34.000 236.403 L 33.750 226.215 31.750 223.101 C 30.247 220.760,29.191 219.718,27.500 218.904 C 26.262 218.309,25.058 217.503,24.824 217.114 C 24.590 216.725,23.633 216.087,22.699 215.696 C 20.876 214.935,20.459 213.571,21.727 212.519 C 22.126 212.188,22.803 210.754,23.230 209.333 C 24.422 205.371,25.282 204.457,26.347 206.022 C 26.807 206.697,28.111 208.150,29.246 209.250 C 33.620 213.492,35.123 213.933,36.921 211.500 C 38.580 209.256,42.727 209.655,45.386 212.315 C 47.215 214.143,49.500 211.132,49.500 206.894 C 49.500 202.707,53.705 198.000,57.444 198.000 C 59.464 198.000,59.966 197.792,60.860 196.583 C 62.875 193.857,63.829 187.500,62.223 187.500 C 61.190 187.500,57.147 185.642,56.737 184.979 C 56.257 184.203,57.279 183.214,59.770 182.043 C 62.418 180.799,62.500 180.790,62.500 181.750 C 62.500 183.670,65.371 182.583,66.509 180.232 C 68.629 175.851,75.287 173.703,77.935 176.545 C 80.077 178.845,80.739 177.758,80.861 171.744 C 81.007 164.522,80.140 161.779,77.250 160.312 C 76.150 159.754,75.175 159.118,75.083 158.899 C 74.992 158.680,74.598 158.500,74.208 158.500 C 73.339 158.500,73.264 155.882,74.044 152.782 C 74.638 150.422,77.149 147.000,78.286 147.000 C 79.322 147.000,79.304 135.350,78.264 132.861 L 77.529 131.100 79.139 130.353 C 80.025 129.942,81.463 129.455,82.335 129.272 C 83.913 128.940,83.922 128.920,84.232 125.094 C 84.913 116.681,86.600 112.935,91.315 109.360 C 92.846 108.200,95.280 106.069,96.724 104.625 C 99.264 102.084,99.438 102.000,102.145 102.000 C 105.511 102.000,105.407 102.144,105.804 96.935 C 106.064 93.520,105.939 92.152,105.121 89.500 C 102.900 82.296,103.485 79.517,107.960 76.000 C 108.135 75.862,109.172 74.348,110.264 72.634 C 112.742 68.747,113.217 68.565,115.214 70.745 C 117.682 73.440,119.692 73.250,120.448 70.250 C 121.101 67.655,121.394 67.540,123.000 69.250 C 124.826 71.194,127.029 70.961,128.541 68.664 C 130.414 65.820,132.087 64.844,135.512 64.596 C 139.153 64.333,139.566 63.775,140.523 57.822 C 141.204 53.584,142.389 51.600,145.062 50.218 C 146.607 49.419,148.754 46.406,149.284 44.292 C 149.574 43.136,149.853 42.999,151.929 42.993 C 153.206 42.989,154.813 42.660,155.500 42.262 C 159.102 40.180,158.912 40.188,160.694 42.035 C 161.603 42.978,162.614 44.256,162.941 44.875 C 164.143 47.151,165.771 46.346,166.706 43.014 C 167.386 40.592,168.159 39.150,169.161 38.436 C 169.210 38.401,171.725 38.215,174.750 38.022 C 177.775 37.828,180.542 37.632,180.899 37.585 C 181.256 37.538,182.105 38.101,182.786 38.836 " stroke="none" fill="#000000" fill-rule="evenodd"></path></g></svg>
